<svg xmlns="http://www.w3.org/2000/svg" xmlns:xlink="http://www.w3.org/1999/xlink" viewBox="0 0 305.91 308.96"><defs><style>.cls-1{fill:none;}.cls-2,.cls-20{fill:#353635;}.cls-3{fill:#a44152;}.cls-4{opacity:0.8;}.cls-5{clip-path:url(#clip-path);}.cls-6{fill:#584260;}.cls-7{font-size:13.05px;fill:#e9eadf;font-family:Montserrat-BlackItalic, Montserrat;font-weight:800;font-style:italic;}.cls-8{clip-path:url(#clip-path-2);}.cls-9{fill:url(#Degradado_sin_nombre_6);}.cls-10{fill:#e6e6e5;}.cls-11{fill:#191c2c;}.cls-12{clip-path:url(#clip-path-3);}.cls-13{fill:#353d62;}.cls-14{clip-path:url(#clip-path-4);}.cls-15{clip-path:url(#clip-path-5);}.cls-16{clip-path:url(#clip-path-6);}.cls-17{fill:#738cf0;}.cls-18{fill:#c04380;}.cls-19{fill:#80c28b;}.cls-20{font-size:8.15px;font-family:Montserrat-Regular, Montserrat;}.cls-21{letter-spacing:-0.01em;}.cls-22{letter-spacing:0em;}.cls-23{letter-spacing:0em;}</style><clipPath id="clip-path"><rect class="cls-1" x="113.28" y="21.97" width="31.83" height="30.73"/></clipPath><clipPath id="clip-path-2"><path class="cls-1" d="M158,32.65c-6.93,0-13,4.55-16.82,10.36a26.75,26.75,0,0,0-3.84,11,39.9,39.9,0,0,0,9.33,31.29c1.67,1.92,3.74,3.77,6.27,4s5.38-1.9,4.89-4.4c-.18-.93-.79-1.82-.61-2.75.39-2,3.45-1.67,5.26-.64s4.57,2,5.53.11c1.13-2.14-1.9-5.73.31-6.71a2.62,2.62,0,0,1,1.47-.07C172,75.24,174,76,176.19,76s4.55-1,5.21-3.1c.58-1.77-.3-3.71-1.52-5.11s-2.78-2.47-4-3.89c-2.84-3.32-3.35-8-3.5-12.36s-.33-8.9-1.33-11.77c-2.42-6.94-12-7.12-13-7.12H158"/></clipPath><linearGradient id="Degradado_sin_nombre_6" x1="-1011.82" y1="-282.38" x2="-1010.82" y2="-282.38" gradientTransform="matrix(0, 43.18, 43.18, 0, 12352.65, 43731.94)" gradientUnits="userSpaceOnUse"><stop offset="0" stop-color="#9e3432"/><stop offset="0.99" stop-color="#a44152"/><stop offset="1" stop-color="#a44152"/></linearGradient><clipPath id="clip-path-3"><rect class="cls-1" x="114.82" y="47.18" width="4.44" height="4.59"/></clipPath><clipPath id="clip-path-4"><rect class="cls-1" x="181.09" y="23.98" width="4.44" height="4.59"/></clipPath><clipPath id="clip-path-5"><rect class="cls-1" x="148.44" y="23.97" width="2.23" height="2.3"/></clipPath><clipPath id="clip-path-6"><rect class="cls-1" x="177.36" y="52.67" width="2.23" height="2.3"/></clipPath></defs><title>CONTACTO-07</title><g id="Capa_2" data-name="Capa 2"><rect class="cls-2" y="0.75" width="305.91" height="308.22"/><rect class="cls-3" x="-0.01" width="305.91" height="4.23"/><g class="cls-4"><g class="cls-5"><path class="cls-6" d="M143.23,22.73c.7.42,1.19.46,1.54,2.34a14.88,14.88,0,0,1-2.1,11.4,9.72,9.72,0,0,1-3.61,3.7c-2.57,1.32-5.64.62-8.52.57a1.57,1.57,0,0,0-.89.18c-.65.46-.27,1.47-.37,2.25-.16,1.27-1.73,2.19-1.45,3.44.17.78,1,1.2,1.55,1.75a3.51,3.51,0,0,1,.46,4.34c.79-1.11-.42-2.56-1.62-3.22s-2.7-1.41-2.71-2.77,1.67-2.44,1.51-3.83a2.19,2.19,0,0,0-1.74-1.69,8.51,8.51,0,0,0-2.57,0,18.45,18.45,0,0,1-5-.3c-1.66-.33-3.45-1.05-4.11-2.61a5.94,5.94,0,0,1-.24-2.75,23.46,23.46,0,0,1,1.43-7.35,9.53,9.53,0,0,1,5-5.34,13.9,13.9,0,0,1,4.63-.73c5.19-.19,8.83-.05,14.3-.14,0,0,3.28,0,4.53.77"/></g></g><text class="cls-7" transform="translate(120.58 37.14)">Hi!</text><g class="cls-8"><rect class="cls-9" x="127.63" y="26.56" width="62.55" height="69.13" transform="translate(-11.29 56.67) rotate(-19.54)"/></g><path class="cls-3" d="M175.82,96.66c0,.72-6.07,1.3-13.56,1.3s-13.57-.58-13.57-1.3,6.07-1.29,13.57-1.29,13.56.58,13.56,1.29"/><path class="cls-10" d="M151.91,51a2.25,2.25,0,0,0,2.9,0,5.71,5.71,0,0,1,.77-.51,2,2,0,0,1,1-.14,1.62,1.62,0,0,1,.72.17,1.71,1.71,0,0,1,.73,1.56,3.83,3.83,0,0,1-2.76,3.6,5.71,5.71,0,0,1-2.14.07,5.3,5.3,0,0,1-2.07-.62,3.33,3.33,0,0,1-1.47-3.51,1.26,1.26,0,0,1,.52-.86,1.52,1.52,0,0,1,1.34-.14,1.8,1.8,0,0,1,.48.35"/><path class="cls-11" d="M148.69,49.47c-.09,0-.15-.29-.25-.71,0-.11-.05-.22-.07-.32a.92.92,0,0,0-.8-.59.94.94,0,0,0-.66.24,1.17,1.17,0,0,0-.32.56c-.11.4-.15.7-.24.7s-.2-.27-.18-.77a1.4,1.4,0,0,1,.33-.87,1.35,1.35,0,0,1,2.14.11,1.2,1.2,0,0,1,.21.48c0,.13,0,.27,0,.41,0,.49-.1.75-.18.76"/><path class="cls-11" d="M160.47,49.47c-.09,0-.16-.29-.25-.71,0-.11-.05-.22-.07-.32a1.17,1.17,0,0,0-.17-.28.93.93,0,0,0-.63-.31.94.94,0,0,0-.66.24,1.17,1.17,0,0,0-.32.56c-.11.4-.15.7-.24.7s-.2-.27-.19-.77a1.48,1.48,0,0,1,.34-.87,1.35,1.35,0,0,1,2.14.11,1.2,1.2,0,0,1,.21.48c0,.13,0,.27,0,.41,0,.49-.1.75-.18.76"/><g class="cls-4"><g class="cls-12"><path class="cls-13" d="M117.78,48.75l1.25.17a.26.26,0,0,1,.07.5l-1.11.52a.29.29,0,0,0-.15.19l-.27,1.42a.27.27,0,0,1-.5.06l-.63-1.36a.27.27,0,0,0-.21-.15L115.05,50a.26.26,0,0,1-.08-.5l1.16-.52a.25.25,0,0,0,.16-.2l.19-1.34a.26.26,0,0,1,.5-.07l.59,1.27a.27.27,0,0,0,.21.15"/></g></g><g class="cls-4"><g class="cls-14"><path class="cls-13" d="M184.05,25.55l1.25.17a.26.26,0,0,1,.08.5l-1.12.52a.24.24,0,0,0-.14.19l-.28,1.42a.27.27,0,0,1-.5.06l-.62-1.36a.27.27,0,0,0-.21-.15l-1.19-.14a.27.27,0,0,1-.07-.51l1.16-.51a.26.26,0,0,0,.15-.2l.19-1.34a.26.26,0,0,1,.5-.07l.6,1.27a.26.26,0,0,0,.2.15"/></g></g><g class="cls-4"><g class="cls-15"><path class="cls-13" d="M149.93,24.76l.62.08a.13.13,0,0,1,0,.25l-.56.26a.14.14,0,0,0-.07.1l-.14.71a.13.13,0,0,1-.25,0l-.32-.68a.12.12,0,0,0-.1-.08l-.59-.07a.13.13,0,0,1,0-.25l.58-.26a.14.14,0,0,0,.08-.1l.09-.67a.13.13,0,0,1,.25,0l.3.64a.15.15,0,0,0,.11.08"/></g></g><g class="cls-4"><g class="cls-16"><path class="cls-13" d="M178.85,53.46l.63.08a.13.13,0,0,1,0,.25l-.56.26a.16.16,0,0,0-.08.1l-.13.71a.13.13,0,0,1-.25,0l-.32-.68a.16.16,0,0,0-.1-.08l-.6-.07a.13.13,0,0,1,0-.25l.59-.26a.12.12,0,0,0,.07-.1l.1-.67a.13.13,0,0,1,.25,0l.3.64a.16.16,0,0,0,.1.08"/></g></g><path class="cls-17" d="M128.29,13.93l1,.14a.21.21,0,0,1,.06.41l-.92.43a.25.25,0,0,0-.12.16l-.22,1.17a.22.22,0,0,1-.41.05l-.52-1.12A.23.23,0,0,0,127,15l-1-.11a.22.22,0,0,1-.06-.42l1-.42a.24.24,0,0,0,.12-.17l.16-1.1a.22.22,0,0,1,.41-.06l.49,1.05a.21.21,0,0,0,.17.12"/><path class="cls-18" d="M188.05,43.5l1.2.16a.25.25,0,0,1,.07.47l-1.07.5a.28.28,0,0,0-.14.18l-.26,1.36a.26.26,0,0,1-.48.06l-.59-1.3a.28.28,0,0,0-.2-.15l-1.14-.13a.25.25,0,0,1-.07-.48l1.11-.49a.26.26,0,0,0,.15-.2l.18-1.27a.25.25,0,0,1,.48-.07l.57,1.21a.24.24,0,0,0,.19.15"/><path class="cls-19" d="M133.83,76.37l.63.08a.14.14,0,0,1,0,.26l-.56.26a.12.12,0,0,0-.08.09l-.13.72a.13.13,0,0,1-.25,0l-.32-.69a.12.12,0,0,0-.1-.07l-.6-.07a.14.14,0,0,1,0-.26l.59-.25a.12.12,0,0,0,.07-.11l.1-.67a.13.13,0,0,1,.25,0l.3.64a.14.14,0,0,0,.1.07"/><path class="cls-19" d="M162.63,16.05l.63.09a.13.13,0,0,1,0,.25l-.56.26a.15.15,0,0,0-.07.1l-.14.71a.13.13,0,0,1-.25,0l-.31-.68a.15.15,0,0,0-.11-.08l-.59-.07a.13.13,0,0,1,0-.25l.58-.26a.16.16,0,0,0,.08-.1l.1-.67a.13.13,0,0,1,.25,0l.3.64a.1.1,0,0,0,.1.07"/><text class="cls-20" transform="translate(60.2 119.74)">Nombre</text><text class="cls-20" transform="translate(60.36 162.6)">T<tspan class="cls-21" x="4.68" y="0">e</tspan><tspan class="cls-22" x="9.51" y="0">x</tspan><tspan class="cls-23" x="13.87" y="0">t</tspan><tspan x="17.15" y="0">o</tspan></text><text class="cls-20" transform="translate(60.36 141.09)">Email</text></g></svg>