<?xml version="1.0" encoding="utf-8"?>
<!-- Generator: Adobe Illustrator 23.0.6, SVG Export Plug-In . SVG Version: 6.00 Build 0)  -->
<svg version="1.1" id="Capa_1" xmlns="http://www.w3.org/2000/svg" xmlns:xlink="http://www.w3.org/1999/xlink" x="0px" y="0px"
	 viewBox="0 0 116.6 15.7" style="enable-background:new 0 0 116.6 15.7;" xml:space="preserve">
<style type="text/css">
	.st0{fill:#A44152;}
	.st1{fill:#FFFFFF;}
</style>
<title>Recurso 1</title>
<path class="st0" d="M0,15.7V0h6.7c0.7,0,1.3,0.1,1.9,0.4c0.6,0.3,1.1,0.7,1.5,1.1c0.4,0.5,0.8,1,1,1.6c0.2,0.6,0.3,1.2,0.3,1.8
	c0,0.5-0.1,1.1-0.2,1.6C11,7.6,10.4,8.4,9.6,9C9.2,9.3,8.7,9.6,8.2,9.7l3.8,6H9.8l-3.6-5.6H2v5.6H0z M2,8.3h4.8
	c0.4,0,0.8-0.1,1.1-0.3c0.3-0.2,0.6-0.4,0.9-0.7C9,7,9.2,6.7,9.3,6.3C9.4,5.9,9.5,5.4,9.5,5c0-0.4-0.1-0.9-0.2-1.3
	c-0.2-0.4-0.4-0.7-0.6-1C8.4,2.4,8.1,2.2,7.7,2C7.4,1.8,7,1.7,6.6,1.7H2V8.3z"/>
<polygon class="st0" points="19.9,0.1 21.8,0.1 23.9,5.6 26,0.1 27.8,0.1 25.1,6.9 27.8,13.4 33.1,0 35.3,0 28.7,15.7 27,15.7 
	23.9,8.3 20.7,15.7 19,15.7 12.4,0 14.6,0 19.9,13.4 22.6,6.9 "/>
<rect x="33.3" y="13.3" class="st1" width="1.6" height="2.5"/>
<rect x="32.5" y="13.3" class="st1" width="1.6" height="2.5"/>
<rect x="55.1" y="7.1" transform="matrix(5.236017e-03 -1 1 5.236017e-03 47.2658 64.1425)" class="st1" width="1.6" height="2.5"/>
<rect x="104.6" y="7.1" transform="matrix(5.236017e-03 -1 1 5.236017e-03 96.5072 113.6441)" class="st1" width="1.6" height="2.5"/>
<path class="st0" d="M43.6,0h1.7l6.4,15.7h-2.1l-1.9-4.6h-6.6l-1.8,4.6h-2.1L43.6,0z M47.3,9.6l-2.8-7.3l-2.9,7.3H47.3z"/>
<path class="st1" d="M65.2,5.8c-0.1-0.1-0.2-0.2-0.3-0.3c-0.1-0.1-0.3-0.2-0.5-0.3c-0.2-0.1-0.4-0.1-0.6-0.2C63.6,5,63.4,5,63.2,5
	c-0.5,0-0.9,0.1-1.3,0.3c-0.3,0.2-0.4,0.6-0.4,0.9c0,0.2,0,0.4,0.1,0.5C61.7,6.9,61.8,7,62,7.1c0.2,0.1,0.4,0.2,0.6,0.3l0.9,0.2
	c0.4,0.1,0.7,0.2,1,0.3c0.3,0.1,0.6,0.2,0.8,0.4c0.2,0.2,0.4,0.4,0.5,0.6C66,9.1,66,9.4,66,9.7c0,0.3-0.1,0.6-0.2,0.9
	c-0.1,0.3-0.3,0.5-0.6,0.7c-0.3,0.2-0.6,0.3-0.9,0.4c-0.4,0.1-0.7,0.1-1.1,0.1c-0.6,0-1.1-0.1-1.7-0.3c-0.5-0.2-1-0.4-1.4-0.8
	l0.5-0.8c0.1,0.1,0.3,0.3,0.4,0.4c0.4,0.3,0.9,0.4,1.4,0.6c0.3,0.1,0.6,0.1,0.8,0.1c0.4,0,0.9-0.1,1.3-0.3c0.3-0.2,0.4-0.5,0.4-0.8
	c0-0.2,0-0.4-0.1-0.5c-0.1-0.2-0.3-0.3-0.4-0.4c-0.2-0.1-0.4-0.2-0.7-0.3c-0.3-0.1-0.6-0.2-0.9-0.3c-0.3-0.1-0.7-0.2-1-0.3
	c-0.3-0.1-0.5-0.2-0.7-0.4c-0.2-0.1-0.3-0.3-0.4-0.5c-0.1-0.2-0.2-0.5-0.2-0.8c0-0.3,0.1-0.7,0.2-1c0.1-0.3,0.3-0.5,0.6-0.7
	c0.3-0.2,0.5-0.3,0.9-0.4c0.4-0.1,0.7-0.1,1.1-0.1c0.5,0,0.9,0.1,1.4,0.2C65,4.5,65.4,4.7,65.7,5L65.2,5.8z"/>
<path class="st1" d="M69.4,11.8V4.2h3.1c0.3,0,0.6,0.1,0.9,0.2C73.7,4.6,74,4.8,74.2,5c0.2,0.2,0.4,0.5,0.5,0.8
	c0.1,0.3,0.2,0.6,0.2,0.9c0,0.3-0.1,0.6-0.2,0.9c-0.1,0.3-0.3,0.5-0.4,0.8c-0.2,0.2-0.4,0.4-0.7,0.5c-0.3,0.1-0.6,0.2-0.9,0.2h-2.2
	v2.7L69.4,11.8z M70.4,8.2h2.2c0.2,0,0.4,0,0.5-0.1c0.2-0.1,0.3-0.2,0.4-0.3c0.1-0.2,0.2-0.3,0.3-0.5c0.1-0.2,0.1-0.4,0.1-0.6
	c0-0.2-0.1-0.4-0.1-0.7c-0.1-0.2-0.2-0.3-0.3-0.5c-0.1-0.1-0.3-0.2-0.4-0.3c-0.2-0.1-0.3-0.1-0.5-0.1h-2.1L70.4,8.2z"/>
<path class="st1" d="M81.2,11.8c-0.5,0-1-0.1-1.4-0.3c-0.4-0.2-0.8-0.5-1.1-0.9c-0.6-0.7-1-1.7-1-2.6c0-0.5,0.1-1,0.3-1.4
	c0.2-0.4,0.4-0.9,0.7-1.2c0.3-0.4,0.7-0.6,1.1-0.8c0.4-0.2,0.9-0.3,1.4-0.3c0.5,0,1,0.1,1.4,0.3C83,4.7,83.4,5,83.7,5.4
	c0.3,0.4,0.6,0.8,0.7,1.2c0.2,0.4,0.3,0.9,0.3,1.4c0,0.5-0.1,1-0.3,1.4c-0.2,0.4-0.4,0.9-0.8,1.2c-0.3,0.4-0.7,0.6-1.1,0.8
	C82.1,11.7,81.7,11.8,81.2,11.8 M78.6,8c0,0.4,0.1,0.7,0.2,1.1c0.1,0.4,0.3,0.7,0.5,1c0.2,0.3,0.5,0.5,0.8,0.7
	c0.3,0.2,0.7,0.2,1.1,0.2c0.4,0,0.7-0.1,1.1-0.3c0.3-0.2,0.6-0.4,0.8-0.7c0.2-0.3,0.4-0.6,0.5-0.9c0.1-0.4,0.2-0.7,0.2-1.1
	c0-0.4-0.1-0.8-0.2-1.1C83.4,6.6,83.2,6.3,83,6c-0.2-0.3-0.5-0.5-0.8-0.7c-0.7-0.3-1.5-0.3-2.1,0c-0.3,0.2-0.6,0.4-0.8,0.7
	C79,6.3,78.8,6.6,78.7,7C78.6,7.3,78.6,7.6,78.6,8"/>
<path class="st1" d="M88.2,11.8V4.2h3.2c0.3,0,0.6,0.1,0.9,0.2C92.6,4.6,92.8,4.8,93,5c0.2,0.2,0.4,0.5,0.5,0.8
	c0.1,0.3,0.2,0.6,0.2,0.9c0,0.3,0,0.5-0.1,0.8c-0.1,0.2-0.2,0.5-0.3,0.7c-0.1,0.2-0.3,0.4-0.5,0.5c-0.2,0.1-0.4,0.2-0.7,0.3l1.8,2.9
	h-1.1l-1.7-2.7h-2v2.7H88.2z M89.2,8.2h2.3c0.2,0,0.4,0,0.5-0.1c0.2-0.1,0.3-0.2,0.4-0.3c0.1-0.2,0.2-0.3,0.3-0.5
	c0.1-0.2,0.1-0.4,0.1-0.6c0-0.2,0-0.4-0.1-0.6c-0.1-0.2-0.2-0.4-0.3-0.5c-0.1-0.1-0.3-0.3-0.4-0.3c-0.2-0.1-0.3-0.1-0.5-0.1h-2.3
	L89.2,8.2z"/>
<polygon class="st1" points="102.6,5.1 100,5.1 100,11.8 99.1,11.8 99.1,5.1 96.5,5.1 96.5,4.2 102.6,4.2 "/>
</svg>
