<svg xmlns="http://www.w3.org/2000/svg" viewBox="0 0 550.72 334.39"><defs><style>.cls-1,.cls-68{fill:#353635;}.cls-2{font-size:19.69px;}.cls-2,.cls-21,.cls-4,.cls-5{fill:#fff;}.cls-2,.cls-21,.cls-49{font-family:Raleway-Bold, Raleway;font-weight:700;}.cls-3{letter-spacing:-0.02em;}.cls-5{font-size:5.39px;font-family:Raleway-Regular, Raleway;}.cls-6{letter-spacing:-0.03em;}.cls-7{letter-spacing:0em;}.cls-8{letter-spacing:-0.01em;}.cls-9{letter-spacing:-0.03em;}.cls-10{letter-spacing:-0.03em;}.cls-11{letter-spacing:-0.01em;}.cls-12{letter-spacing:0em;}.cls-13{letter-spacing:-0.01em;}.cls-14{letter-spacing:0em;}.cls-15{letter-spacing:-0.01em;}.cls-16{letter-spacing:0em;}.cls-17{letter-spacing:-0.03em;}.cls-18{letter-spacing:-0.02em;}.cls-19{letter-spacing:-0.03em;}.cls-20{letter-spacing:-0.03em;}.cls-21,.cls-49{font-size:7.79px;}.cls-22{letter-spacing:-0.01em;}.cls-23{letter-spacing:0em;}.cls-24{letter-spacing:-0.03em;}.cls-25{letter-spacing:-0.01em;}.cls-26{letter-spacing:-0.01em;}.cls-27{letter-spacing:0em;}.cls-28{letter-spacing:-0.01em;}.cls-29{letter-spacing:-0.03em;}.cls-30{letter-spacing:-0.02em;}.cls-31{letter-spacing:-0.01em;}.cls-32{letter-spacing:0em;}.cls-33{letter-spacing:-0.01em;}.cls-34{letter-spacing:-0.03em;}.cls-35{letter-spacing:-0.01em;}.cls-36{letter-spacing:0em;}.cls-37{letter-spacing:-0.01em;}.cls-38{letter-spacing:-0.02em;}.cls-39{letter-spacing:-0.01em;}.cls-40{letter-spacing:-0.01em;}.cls-41{letter-spacing:-0.01em;}.cls-42{letter-spacing:-0.03em;}.cls-43{letter-spacing:0em;}.cls-44{letter-spacing:-0.03em;}.cls-45{letter-spacing:-0.01em;}.cls-46{letter-spacing:0em;}.cls-47{letter-spacing:-0.03em;}.cls-48{fill:#a44152;}.cls-49{fill:#a54152;}.cls-50{letter-spacing:-0.01em;}.cls-51{letter-spacing:-0.01em;}.cls-52{letter-spacing:-0.03em;}.cls-53{letter-spacing:-0.01em;}.cls-54{letter-spacing:-0.03em;}.cls-55{letter-spacing:0em;}.cls-56{letter-spacing:-0.03em;}.cls-57{letter-spacing:-0.01em;}.cls-58{letter-spacing:-0.01em;}.cls-59{letter-spacing:-0.02em;}.cls-60{letter-spacing:-0.01em;}.cls-61{letter-spacing:-0.07em;}.cls-62{letter-spacing:-0.03em;}.cls-63{letter-spacing:-0.01em;}.cls-64{letter-spacing:-0.07em;}.cls-65{letter-spacing:-0.01em;}.cls-66{letter-spacing:-0.01em;}.cls-67{fill:none;stroke:#353635;stroke-miterlimit:10;}.cls-68{fill-rule:evenodd;}</style></defs><title>servblack-06</title><g id="Capa_3" data-name="Capa 3"><rect class="cls-1" x="-0.21" width="551" height="334.39"/><text class="cls-2" transform="translate(224.51 39.32)">SE<tspan class="cls-3" x="23.9" y="0">R</tspan><tspan x="36.68" y="0">VICIOS</tspan></text><path class="cls-4" d="M128.42,68.42h31.27a6.39,6.39,0,0,1,6.39,6.39v31.27a6.4,6.4,0,0,1-6.4,6.4H128.42a6.4,6.4,0,0,1-6.4-6.4V74.82A6.4,6.4,0,0,1,128.42,68.42Z"/><text class="cls-5" transform="translate(101.61 142.25) scale(1.11 1)">Construimos la p<tspan class="cls-6" x="42.03" y="0">r</tspan><tspan x="43.78" y="0">esencia online de </tspan></text><text class="cls-5" transform="translate(97.25 151.07) scale(1.11 1)">nuest<tspan class="cls-6" x="13.94" y="0">r</tspan><tspan x="15.7" y="0">os clie</tspan><tspan class="cls-7" x="31.67" y="0">n</tspan><tspan class="cls-8" x="34.8" y="0">t</tspan><tspan x="36.53" y="0">es</tspan><tspan class="cls-9" x="42.32" y="0"> </tspan><tspan class="cls-10" x="43.55" y="0">y</tspan><tspan x="46.33" y="0" xml:space="preserve"> c</tspan><tspan class="cls-6" x="50.67" y="0">r</tspan><tspan x="52.42" y="0">eamos est</tspan><tspan class="cls-11" x="78.28" y="0">r</tspan><tspan class="cls-12" x="80.14" y="0">a</tspan><tspan class="cls-13" x="83.07" y="0">t</tspan><tspan x="84.81" y="0">egia </tspan></text><text class="cls-5" transform="translate(96.14 159.88) scale(1.11 1)">de <tspan class="cls-7" x="7.89" y="0">c</tspan><tspan x="10.83" y="0">o</tspan><tspan class="cls-14" x="14.04" y="0">n</tspan><tspan class="cls-13" x="17.16" y="0">t</tspan><tspan x="18.91" y="0">enidos pa</tspan><tspan class="cls-15" x="43.22" y="0">r</tspan><tspan class="cls-16" x="45.07" y="0">a las </tspan><tspan class="cls-6" x="57.79" y="0">r</tspan><tspan x="59.55" y="0">edes sociales</tspan><tspan class="cls-17" x="93.4" y="0"> </tspan><tspan class="cls-10" x="94.63" y="0">y</tspan><tspan x="97.41" y="0"> </tspan></text><text class="cls-5" transform="translate(99.6 168.69) scale(1.11 1)">Elabo<tspan class="cls-15" x="14.22" y="0">r</tspan><tspan class="cls-16" x="16.08" y="0">amos </tspan><tspan class="cls-6" x="31.18" y="0">r</tspan><tspan x="32.94" y="0">epor</tspan><tspan class="cls-13" x="44.53" y="0">t</tspan><tspan x="46.27" y="0">es personalizados </tspan></text><text class="cls-5" transform="translate(118.28 177.5) scale(1.11 1)">pa<tspan class="cls-15" x="6.27" y="0">r</tspan><tspan class="cls-16" x="8.12" y="0">a medi</tspan><tspan class="cls-18" x="25.08" y="0">r</tspan><tspan x="26.85" y="0" xml:space="preserve"> e</tspan><tspan class="cls-19" x="31.39" y="0">l</tspan><tspan x="32.69" y="0" xml:space="preserve"> p</tspan><tspan class="cls-6" x="37.39" y="0">r</tspan><tspan x="39.15" y="0">og</tspan><tspan class="cls-20" x="45.69" y="0">r</tspan><tspan class="cls-16" x="47.44" y="0">eso. </tspan></text><text class="cls-21" transform="translate(121.43 126.18) scale(1.02 1)">G<tspan class="cls-22" x="5.65" y="0">E</tspan><tspan class="cls-23" x="10.21" y="0">S</tspan><tspan x="14.95" y="0">TIÓN DE</tspan></text><text class="cls-21" transform="translate(117.37 133.37) scale(1.02 1)">SOCIA<tspan class="cls-24" x="23.47" y="0">L</tspan><tspan x="27.81" y="0" xml:space="preserve"> MEDIA</tspan></text><rect class="cls-4" x="387.65" y="68.41" width="44.06" height="44.06" rx="6.4"/><text class="cls-21" transform="translate(377.24 126.18) scale(1.02 1)"><tspan class="cls-25">A</tspan><tspan x="5.16" y="0">S</tspan><tspan class="cls-26" x="9.93" y="0">E</tspan><tspan class="cls-27" x="14.5" y="0">SO</tspan><tspan class="cls-28" x="25.17" y="0">R</tspan><tspan class="cls-27" x="30.26" y="0">AMIEN</tspan><tspan class="cls-29" x="55.08" y="0">T</tspan><tspan class="cls-27" x="59.65" y="0">O </tspan></text><text class="cls-21" transform="translate(390.03 133.37) scale(1.02 1)">DE IM<tspan class="cls-30" x="21.09" y="0">A</tspan><tspan x="26.13" y="0">GEN</tspan></text><text class="cls-5" transform="translate(371.18 142.27) scale(1.11 1)"><tspan class="cls-31">E</tspan><tspan class="cls-32" x="3.25" y="0">specialistas en la c</tspan><tspan class="cls-6" x="49.88" y="0">r</tspan><tspan x="51.64" y="0">eación, </tspan></text><text class="cls-5" transform="translate(365.24 151.08) scale(1.11 1)"><tspan class="cls-33">c</tspan><tspan class="cls-32" x="2.93" y="0">ome</tspan><tspan class="cls-34" x="14.26" y="0">r</tspan><tspan x="16.02" y="0">cialización</tspan><tspan class="cls-17" x="41.82" y="0"> </tspan><tspan class="cls-6" x="43.05" y="0">y</tspan><tspan x="45.83" y="0" xml:space="preserve"> desar</tspan><tspan class="cls-6" x="61.18" y="0">r</tspan><tspan x="62.93" y="0">ollo de </tspan></text><text class="cls-5" transform="translate(368.81 159.89) scale(1.11 1)">est<tspan class="cls-35" x="7.6" y="0">r</tspan><tspan class="cls-36" x="9.45" y="0">a</tspan><tspan class="cls-37" x="12.37" y="0">t</tspan><tspan class="cls-32" x="14.11" y="0">egias de p</tspan><tspan class="cls-36" x="39.95" y="0">a</tspan><tspan x="42.87" y="0">t</tspan><tspan class="cls-38" x="44.67" y="0">r</tspan><tspan x="46.43" y="0">ocinio pa</tspan><tspan class="cls-31" x="68.94" y="0">r</tspan><tspan class="cls-32" x="70.8" y="0">a </tspan></text><text class="cls-5" transform="translate(372.4 168.7) scale(1.11 1)">deportistas p<tspan class="cls-38" x="32.63" y="0">r</tspan><tspan class="cls-39" x="34.39" y="0">o</tspan><tspan class="cls-38" x="37.55" y="0">f</tspan><tspan class="cls-32" x="39.2" y="0">esionales e </tspan></text><text class="cls-5" transform="translate(376.47 177.51) scale(1.11 1)">instituciones deporti<tspan class="cls-40" x="50.52" y="0">v</tspan><tspan x="53.33" y="0">as.</tspan></text><text class="cls-5" transform="translate(224.43 142.49) scale(1.11 1)"><tspan class="cls-33">A</tspan><tspan x="3.62" y="0">seso</tspan><tspan class="cls-15" x="15.24" y="0">r</tspan><tspan class="cls-16" x="17.1" y="0">amie</tspan><tspan class="cls-7" x="29.33" y="0">n</tspan><tspan class="cls-41" x="32.46" y="0">t</tspan><tspan x="34.2" y="0">o</tspan><tspan class="cls-42" x="37.41" y="0"> </tspan><tspan class="cls-6" x="38.64" y="0">y</tspan><tspan x="41.42" y="0"> </tspan><tspan class="cls-43" x="42.79" y="0">a</tspan><tspan class="cls-13" x="45.71" y="0">t</tspan><tspan x="47.46" y="0">ención p</tspan><tspan class="cls-44" x="68.96" y="0">r</tspan><tspan class="cls-45" x="70.71" y="0">o</tspan><tspan class="cls-38" x="73.88" y="0">f</tspan><tspan x="75.52" y="0">esiona</tspan><tspan class="cls-19" x="91.78" y="0">l</tspan><tspan x="93.08" y="0" xml:space="preserve"> a</tspan><tspan class="cls-19" x="97.39" y="0">l</tspan><tspan x="98.69" y="0"> </tspan></text><text class="cls-5" transform="translate(230.87 151.3) scale(1.11 1)">deportista. Gene<tspan class="cls-31" x="41.03" y="0">r</tspan><tspan x="42.89" y="0">amos </tspan><tspan class="cls-46" x="57.99" y="0">c</tspan><tspan x="60.93" y="0">o</tspan><tspan class="cls-33" x="64.14" y="0">n</tspan><tspan class="cls-13" x="67.26" y="0">t</tspan><tspan x="69" y="0">enido</tspan><tspan class="cls-47" x="83.05" y="0"> </tspan><tspan class="cls-6" x="84.27" y="0">y</tspan><tspan x="87.05" y="0"> </tspan></text><text class="cls-5" transform="translate(225.34 160.11) scale(1.11 1)">gestionamos situaciones de actualidad </text><text class="cls-5" transform="translate(233.04 168.93) scale(1.11 1)"><tspan class="cls-33">c</tspan><tspan x="2.93" y="0">on los medios de </tspan><tspan class="cls-14" x="47.09" y="0">c</tspan><tspan x="50.03" y="0">omunicación.</tspan></text><rect class="cls-48" x="255.67" y="68.18" width="44.06" height="44.06" rx="6.4"/><text class="cls-49" transform="translate(252.4 126.18) scale(1.02 1)">GENE<tspan class="cls-50" x="20.95" y="0">R</tspan><tspan x="26.05" y="0">AMOS </tspan></text><text class="cls-49" transform="translate(254.59 133.37) scale(1.02 1)"><tspan class="cls-51">C</tspan><tspan x="5.3" y="0">ONTENIDO</tspan></text><path class="cls-4" d="M271,87.91a5.91,5.91,0,0,0,5.46-3.67,4.62,4.62,0,1,0,.38-3A5.89,5.89,0,1,0,271,87.91m10-8a3.38,3.38,0,1,1-3.38,3.38A3.38,3.38,0,0,1,281,79.91m-10-2.54A4.65,4.65,0,1,1,266.33,82,4.65,4.65,0,0,1,271,77.37"/><path class="cls-4" d="M279,88.51a.62.62,0,0,0-.62.62.62.62,0,0,0,.62.62h5a.62.62,0,0,0,.62-.62.62.62,0,0,0-.62-.62Z"/><path class="cls-4" d="M293.07,88a.6.6,0,0,0-.58-.06l-5.56,2.3V87.53A1.54,1.54,0,0,0,285.39,86a.62.62,0,0,0,0,1.24.29.29,0,0,1,.29.29v13.18a.29.29,0,0,1-.29.29H266a.29.29,0,0,1-.28-.29V87.53a.29.29,0,0,1,.28-.29A.62.62,0,1,0,266,86a1.54,1.54,0,0,0-1.53,1.53v13.18a1.53,1.53,0,0,0,1.53,1.53h19.41a1.53,1.53,0,0,0,1.54-1.53V98.24l5.56,2.29a.52.52,0,0,0,.24,0,.59.59,0,0,0,.34-.1.64.64,0,0,0,.28-.52V88.5a.64.64,0,0,0-.28-.52m-1,11-5.18-2.14V91.57l5.18-2.14Z"/><path class="cls-1" d="M157,84.17a19.27,19.27,0,0,0-2.78-6.8c-1.48-2.17-3.12-3.32-4.75-3.32l-.33,0A3.13,3.13,0,0,0,147,75.4a9.84,9.84,0,0,0-1.63,4.19l-.13.1s-3.29,2.58-5.5,4a16.17,16.17,0,0,1-3.8,1.65.79.79,0,0,0-.22,0l-5.89,1.32-.1,0a2.48,2.48,0,0,0-1,.24,2.27,2.27,0,0,0-1,1.1l-.39.23s-1.11.93-.39,3.3c0,0,.43,1.53,1.63,1.82h.38l.08.07a2.21,2.21,0,0,0,1.32.46,2,2,0,0,0,.35,0,.64.64,0,0,0,.47-.2l.32,0,.52-.1,1.65,2.58.86.73,3.57,7h1.3l2-2.06s.32-.32-.27-1-2.87-4.11-2.87-4.11l.49-.89L138,92.29a43.07,43.07,0,0,1,10.49,1.38l.07,0c1.06,1.51,2.84,3.53,4.78,3.53a3,3,0,0,0,.52,0,3.53,3.53,0,0,0,2.24-1.61c1.5-2.24,1.87-6.72.93-11.39m-20.82,8.19.57,0a1.77,1.77,0,0,1-.57,0m-.53-.2a4.47,4.47,0,0,1-1.9-3.57c0-1.83.9-2.58,1.52-2.82l.28-.08h0a17.87,17.87,0,0,0,4.28-1.8c2-1.25,4.7-3.37,5.37-3.89l0,.16a19.69,19.69,0,0,0,0,5.84,20,20,0,0,0,2.93,7.19l.13.19a40.24,40.24,0,0,0-12.66-1.22M154.9,94.8a2.15,2.15,0,0,1-1.36,1c-1.11.22-2.72-1.08-4.22-3.38a18.33,18.33,0,0,1-2.73-6.64c-.57-3.57.07-7.76,1.45-9.55a1.82,1.82,0,0,1,1.22-.8h.19c2.33,0,5.21,4.21,6.18,9,.85,4.27.56,8.43-.73,10.36"/><path class="cls-1" d="M145.92,83.19,147,88.71a2.82,2.82,0,0,0-1.05-5.52"/><path class="cls-4" d="M129,188.24h31.27a6.39,6.39,0,0,1,6.39,6.39V225.9a6.4,6.4,0,0,1-6.4,6.4H129a6.4,6.4,0,0,1-6.4-6.4V194.64A6.4,6.4,0,0,1,129,188.24Z"/><text class="cls-5" transform="translate(104.42 262.48) scale(1.11 1)">impleme<tspan class="cls-7" x="22.21" y="0">n</tspan><tspan x="25.33" y="0">tación</tspan><tspan class="cls-17" x="40.57" y="0"> </tspan><tspan class="cls-10" x="41.8" y="0">y</tspan><tspan x="44.58" y="0" xml:space="preserve"> o</tspan><tspan class="cls-11" x="49.16" y="0">p</tspan><tspan x="52.46" y="0">timización de </tspan></text><text class="cls-5" transform="translate(98.76 271.29) scale(1.11 1)">acue<tspan class="cls-38" x="12.27" y="0">r</tspan><tspan x="14.03" y="0">dos de p</tspan><tspan class="cls-12" x="35.81" y="0">a</tspan><tspan x="38.73" y="0">t</tspan><tspan class="cls-20" x="40.54" y="0">r</tspan><tspan class="cls-16" x="42.29" y="0">ocinio. P</tspan><tspan class="cls-6" x="62.91" y="0">r</tspan><tspan class="cls-16" x="64.66" y="0">odu</tspan><tspan class="cls-7" x="74.43" y="0">c</tspan><tspan x="77.37" y="0">ción de </tspan></text><text class="cls-5" transform="translate(106.38 280.1) scale(1.11 1)">m<tspan class="cls-12" x="4.96" y="0">a</tspan><tspan class="cls-41" x="7.88" y="0">t</tspan><tspan x="9.62" y="0">eriales, logística, alma</tspan><tspan class="cls-7" x="64.22" y="0">c</tspan><tspan x="67.15" y="0">enaje, </tspan></text><text class="cls-5" transform="translate(98.63 288.91) scale(1.11 1)">ideación de acti<tspan class="cls-40" x="39.27" y="0">v</tspan><tspan x="42.08" y="0">aciones, seguimie</tspan><tspan class="cls-7" x="86.68" y="0">n</tspan><tspan class="cls-41" x="89.81" y="0">t</tspan><tspan x="91.55" y="0">o, </tspan></text><text class="cls-5" transform="translate(119.76 297.72) scale(1.11 1)"><tspan class="cls-8">e</tspan><tspan class="cls-40" x="3.1" y="0">v</tspan><tspan x="5.9" y="0">aluación de</tspan><tspan class="cls-19" x="34.83" y="0">l</tspan><tspan x="36.13" y="0" xml:space="preserve"> ROI, </tspan><tspan class="cls-12" x="49" y="0">e</tspan><tspan class="cls-41" x="52.15" y="0">t</tspan><tspan x="53.89" y="0">c.</tspan></text><text class="cls-21" transform="translate(115.48 245.32) scale(1.02 1)">SPONSORSHI<tspan class="cls-52" x="50.1" y="0">P</tspan><tspan x="54.75" y="0"> </tspan></text><text class="cls-21" transform="translate(132.07 252.51) scale(1.02 1)">MEDIA</text><rect class="cls-4" x="388.81" y="188.22" width="44.06" height="44.06" rx="6.4"/><text class="cls-21" transform="translate(396.52 242.88) scale(1.02 1)">MAR<tspan class="cls-53" x="17.15" y="0">C</tspan><tspan class="cls-54" x="22.42" y="0">A</tspan><tspan class="cls-55" x="27.42" y="0"> </tspan></text><text class="cls-21" transform="translate(390.57 250.07) scale(1.02 1)">PERSONAL</text><text class="cls-5" transform="translate(358.2 262.09) scale(1.11 1)">Desar<tspan class="cls-34" x="14.48" y="0">r</tspan><tspan class="cls-32" x="16.24" y="0">ollo de est</tspan><tspan class="cls-35" x="42.45" y="0">r</tspan><tspan class="cls-36" x="44.31" y="0">a</tspan><tspan class="cls-40" x="47.23" y="0">t</tspan><tspan x="48.97" y="0">egias de b</tspan><tspan class="cls-35" x="74.81" y="0">r</tspan><tspan x="76.66" y="0">anding, </tspan></text><text class="cls-5" transform="translate(357.68 270.9) scale(1.11 1)">naming e ide<tspan class="cls-33" x="32.3" y="0">n</tspan><tspan x="35.42" y="0">tidad</tspan><tspan class="cls-6" x="48.04" y="0"> </tspan><tspan x="49.28" y="0">visual. C</tspan><tspan class="cls-38" x="69.66" y="0">r</tspan><tspan x="71.41" y="0">eación de </tspan></text><text class="cls-5" transform="translate(369.88 279.71) scale(1.11 1)">ma<tspan class="cls-6" x="7.89" y="0">r</tspan><tspan x="9.65" y="0">ca persona</tspan><tspan class="cls-56" x="37.22" y="0">l</tspan><tspan x="38.53" y="0" xml:space="preserve"> pa</tspan><tspan class="cls-35" x="46.17" y="0">r</tspan><tspan x="48.02" y="0">a nuest</tspan><tspan class="cls-34" x="66.28" y="0">r</tspan><tspan class="cls-32" x="68.04" y="0">os </tspan></text><text class="cls-5" transform="translate(394.78 288.52) scale(1.11 1)">deportistas.</text><text class="cls-5" transform="translate(233 262.31) scale(1.11 1)">C<tspan class="cls-38" x="3.7" y="0">r</tspan><tspan x="5.46" y="0">eamos i</tspan><tspan class="cls-7" x="24.9" y="0">n</tspan><tspan class="cls-38" x="28.02" y="0">f</tspan><tspan class="cls-16" x="29.67" y="0">ormes estadísti</tspan><tspan class="cls-46" x="67.56" y="0">c</tspan><tspan x="70.5" y="0">os de </tspan></text><text class="cls-5" transform="translate(233.69 271.12) scale(1.11 1)"><tspan class="cls-6">r</tspan><tspan x="1.75" y="0">endimie</tspan><tspan class="cls-7" x="21.89" y="0">n</tspan><tspan class="cls-57" x="25.01" y="0">t</tspan><tspan class="cls-16" x="26.75" y="0">o en base a las nu</tspan><tspan class="cls-58" x="71.51" y="0">e</tspan><tspan class="cls-40" x="74.6" y="0">v</tspan><tspan class="cls-32" x="77.41" y="0">as </tspan></text><text class="cls-5" transform="translate(238.49 279.93) scale(1.11 1)"><tspan class="cls-13">t</tspan><tspan class="cls-16" x="1.74" y="0">ecnologías que nos permi</tspan><tspan class="cls-37" x="66.28" y="0">t</tspan><tspan x="68.02" y="0">en </tspan></text><text class="cls-5" transform="translate(229.16 288.74) scale(1.11 1)">e<tspan class="cls-7" x="3.17" y="0">n</tspan><tspan x="6.29" y="0">t</tspan><tspan class="cls-6" x="8.09" y="0">r</tspan><tspan x="9.85" y="0">ecruza</tspan><tspan class="cls-18" x="26.66" y="0">r</tspan><tspan x="28.43" y="0" xml:space="preserve"> d</tspan><tspan class="cls-12" x="33.16" y="0">a</tspan><tspan class="cls-13" x="36.08" y="0">t</tspan><tspan x="37.82" y="0">os</tspan><tspan class="cls-47" x="43.66" y="0"> </tspan><tspan class="cls-6" x="44.88" y="0">y</tspan><tspan x="47.66" y="0"> </tspan><tspan class="cls-33" x="49.04" y="0">c</tspan><tspan x="51.97" y="0">ono</tspan><tspan class="cls-14" x="61.53" y="0">c</tspan><tspan x="64.47" y="0">e</tspan><tspan class="cls-59" x="67.63" y="0">r</tspan><tspan x="69.4" y="0" xml:space="preserve"> un po</tspan><tspan class="cls-14" x="85.04" y="0">c</tspan><tspan class="cls-32" x="87.97" y="0">o </tspan></text><text class="cls-5" transform="translate(248.42 297.55) scale(1.11 1)">más de los deportistas</text><rect class="cls-48" x="257.07" y="188" width="44.06" height="44.06" rx="6.4"/><text class="cls-49" transform="translate(251.68 244.46) scale(1.02 1)">LABO<tspan class="cls-60" x="20.97" y="0">R</tspan><tspan class="cls-61" x="26.06" y="0">A</tspan><tspan class="cls-62" x="30.76" y="0">T</tspan><tspan x="35.33" y="0">ORIO</tspan></text><text class="cls-49" transform="translate(248.46 251.65) scale(1.02 1)">DE <tspan class="cls-63" x="12.13" y="0">E</tspan><tspan class="cls-23" x="16.69" y="0">S</tspan><tspan class="cls-64" x="21.43" y="0">T</tspan><tspan class="cls-27" x="25.72" y="0">ADÍ</tspan><tspan class="cls-65" x="38.76" y="0">S</tspan><tspan x="43.49" y="0">TI</tspan><tspan class="cls-66" x="50.54" y="0">C</tspan><tspan class="cls-27" x="55.81" y="0">A</tspan></text><path class="cls-67" d="M420,80.3a14.33,14.33,0,1,0,4.2,10.14A14.31,14.31,0,0,0,420,80.3Z"/><path class="cls-68" d="M397.52,85.92,399,87.24c.37,3.21,1.46,5.23,4.95,5.25,4,0,3.84-2.75,4.59-5.73h2.65c.75,3,.62,5.76,4.59,5.73,3.49,0,4.57-2,4.95-5.25l1.45-1.32a26,26,0,0,0-6.14-1,14,14,0,0,0-3.17.49c-1.75.3-1.37-.48-3-.48s-1.25.78-3,.48a14,14,0,0,0-3.17-.49,25.94,25.94,0,0,0-6.14,1"/><path class="cls-68" d="M406,95.91a6.23,6.23,0,0,0,7.85,0c-.66,3.74-7.19,3.74-7.85,0"/><path class="cls-4" d="M289.64,227.12H268.72a2.56,2.56,0,0,1-2.56-2.56v-29a2.56,2.56,0,0,1,2.56-2.56h20.92a2.56,2.56,0,0,1,2.56,2.56v29a2.56,2.56,0,0,1-2.56,2.56m-20.92-33a1.4,1.4,0,0,0-1.4,1.4v29a1.4,1.4,0,0,0,1.4,1.4h20.92a1.4,1.4,0,0,0,1.39-1.4v-29a1.4,1.4,0,0,0-1.39-1.4Z"/><path class="cls-4" d="M287.81,224.6H270.54a1.9,1.9,0,0,1-1.9-1.9V197.38a1.91,1.91,0,0,1,1.9-1.9h17.27a1.91,1.91,0,0,1,1.91,1.9V222.7a1.91,1.91,0,0,1-1.91,1.9m-17.27-27.95a.74.74,0,0,0-.74.73V222.7a.74.74,0,0,0,.74.74h17.27a.74.74,0,0,0,.74-.74V197.38a.74.74,0,0,0-.74-.73Z"/><path class="cls-4" d="M282.26,199H276.1a1.91,1.91,0,0,1-1.91-1.9V193h10v4.11a1.9,1.9,0,0,1-1.9,1.9m-6.9-4.85v3a.74.74,0,0,0,.74.74h6.16a.74.74,0,0,0,.74-.74v-3Z"/><path class="cls-4" d="M284.27,212.73a1.24,1.24,0,1,1-1.24-1.24,1.23,1.23,0,0,1,1.24,1.24"/><path class="cls-4" d="M276.49,205a1.24,1.24,0,1,1-1.24-1.24,1.23,1.23,0,0,1,1.24,1.24"/><rect class="cls-4" x="278.6" y="205.7" width="1.09" height="6.27" transform="translate(-65.91 258.55) rotate(-45)"/><rect class="cls-4" x="276.23" y="215.98" width="6.01" height="1.09" transform="translate(-71.32 260.88) rotate(-45)"/><rect class="cls-4" x="282.49" y="201.51" width="1.09" height="3.09" transform="translate(-60.68 259.61) rotate(-45)"/><rect class="cls-4" x="281.49" y="202.5" width="3.09" height="1.09" transform="translate(-60.68 259.61) rotate(-45)"/><rect class="cls-4" x="274.71" y="211.18" width="1.09" height="3.09" transform="translate(-69.8 256.94) rotate(-45)"/><rect class="cls-4" x="273.71" y="212.18" width="3.09" height="1.09" transform="translate(-69.8 256.95) rotate(-45)"/><path class="cls-67" d="M401.3,198.21c.6.55,1.18,1.1,1.8,1.61s1,.84,1.55,1.23a13.9,13.9,0,0,0,2.35,1.38,8.34,8.34,0,0,0,1.8.62,4.55,4.55,0,0,0,.63.09c.06-.28.16-.54.23-.82s.19-.57.3-.85a11.27,11.27,0,0,1,.78-1.69c.09.05.1.16.15.25s.19.45.31.65c.12,0,.24,0,.37,0a5.23,5.23,0,0,1,.79,0l.29,0a2.65,2.65,0,0,0,.32-.5,3.45,3.45,0,0,1,.2-.32.26.26,0,0,1,.12.11,6.83,6.83,0,0,1,.41,1.06,14.49,14.49,0,0,1,.54,2.23,5.22,5.22,0,0,0,1.31-.08,10.38,10.38,0,0,0,3.93-1.64,16.54,16.54,0,0,0,2.32-1.77c.27-.25.55-.47.81-.73a2.55,2.55,0,0,1,.3-.26c.36.54.66,1.12,1,1.68.2.35.39.7.6,1s.32.59.48.89a44.45,44.45,0,0,1,2,4.38c.23.65.43,1.32.62,2s.3,1.27.43,1.91.19,1.21.24,1.82c.07.29,0,.58.09.87.05.78.14,1.57.15,2.36a4.33,4.33,0,0,1,0,.72c0,.35,0,.7,0,1.06s0,.89-.11,1.33a6.56,6.56,0,0,1-.09.76,7.55,7.55,0,0,1-.17,1q-.29-.42-.54-.84c-.09-.15-.21-.28-.31-.42a5.5,5.5,0,0,0-1.17-1.14,6,6,0,0,0-2.65-1.07,5.72,5.72,0,0,0-2.4.21,7.68,7.68,0,0,0-1.56.74,7.81,7.81,0,0,0-2-1.38,5,5,0,0,0-.82-.28,7.46,7.46,0,0,0-1.16-.1,5,5,0,0,0-2.42.67,6.08,6.08,0,0,0-2,1.93.94.94,0,0,1-.16.23,6.09,6.09,0,0,0-.4-.81,6,6,0,0,0-1.35-1.53c-.12-.1-.25-.17-.37-.27a5.23,5.23,0,0,0-1-.46,3.58,3.58,0,0,0-.73-.2A5,5,0,0,0,405,216a6.19,6.19,0,0,0-2,1.26c-.09.07-.14.2-.26.24a3.28,3.28,0,0,0-.57-.43c-.17-.13-.34-.24-.51-.36a4.32,4.32,0,0,0-1.54-.59,5,5,0,0,0-1.55,0,2.65,2.65,0,0,0-.78.21,5.16,5.16,0,0,0-2,1.39,7,7,0,0,0-1,1.44,2.5,2.5,0,0,1-.23.39,4.85,4.85,0,0,1,0-.66c0-.35,0-.7,0-1.06.05-.7,0-1.41.11-2.11,0-.18,0-.37,0-.55a26.27,26.27,0,0,1,.38-3.07c0-.14.07-.26.09-.39s.09-.47.15-.69c.12-.37.19-.75.3-1.11s.16-.56.26-.84c.26-.7.46-1.43.72-2.14.13-.24.2-.5.32-.74.2-.5.42-1,.64-1.48l.73-1.46c.06-.15.17-.27.22-.43.3-.57.61-1.14.92-1.71.22-.33.39-.69.61-1s.6-.9.91-1.34C401,198.57,401.15,198.38,401.3,198.21Z"/><rect class="cls-67" x="129.88" y="201.89" width="29.54" height="20.32" rx="3.19"/><path class="cls-1" d="M147.42,211.7h-5.55a5,5,0,0,1-5-5v-7.32a5,5,0,0,1,5-5h5.55a5,5,0,0,1,5,5v7.32a5,5,0,0,1-5,5M141.87,198a1.43,1.43,0,0,0-1.42,1.42v7.32a1.42,1.42,0,0,0,1.42,1.42h5.55a1.41,1.41,0,0,0,1.42-1.42v-7.32a1.42,1.42,0,0,0-1.42-1.42Z"/></g></svg>