<?xml version="1.0" encoding="utf-8"?>
<!-- Generator: Adobe Illustrator 23.0.6, SVG Export Plug-In . SVG Version: 6.00 Build 0)  -->
<svg version="1.1" id="Capa_1" xmlns="http://www.w3.org/2000/svg" xmlns:xlink="http://www.w3.org/1999/xlink" x="0px" y="0px"
	 viewBox="0 0 4313.7 4313.7" style="enable-background:new 0 0 4313.7 4313.7;" xml:space="preserve">
<style type="text/css">
	.st0{fill-rule:evenodd;clip-rule:evenodd;fill:#FFFFFF;}
	.st1{fill-rule:evenodd;clip-rule:evenodd;fill:#438765;}
	.st2{fill-rule:evenodd;clip-rule:evenodd;fill:#E3BB54;}
</style>
<g>
	<path class="st0" d="M945.3,868.3h2500v2500h-2500V868.3z"/>
	<path class="st1" d="M2195.3,3258c-364.9-122.8-641-356.9-769.6-676.3h397.5c-25.5-36.2-46.9-74.6-63.4-115.7h-373
		c-10.4-37.9-18.8-76.4-25-115.2h363.6c-7-38.2-10.7-76.9-11.2-115.7h-365.4c-1.8-26.5-2.7-53-2.7-79.5c0-12.1,0.5-24.1,0.5-35.7
		h372.1c2.2-26.3,5.8-51.8,10.3-76.8c2.2-13,4.9-25.9,7.6-38.9h-385.5c11.6-178.2,46-326.5,108.1-477.1
		c206.4-4.9,274.3-38.9,357.8-80.9c94.7-47.3,176.4-98.3,378.3-98.3c201.9,0,283.7,50.9,378.3,98.3c83.5,42,151.4,75.9,357.8,80.9
		c62.1,150.5,96.5,298.8,108.1,477.1h-385.5c2.7,13,5.4,25.9,7.6,38.9c4.6,25.4,8,51.1,10.3,76.8H3044c0,11.6,0.5,23.7,0.5,35.7
		c0,26.8-0.9,53.6-2.7,79.5h-365.4c-0.5,38.8-4.2,77.5-11.2,115.7h363.6c-6.2,38.8-14.6,77.3-25,115.2h-373
		c-16.5,41.1-38,79.5-63.4,115.7h397.5C2836.3,2901.1,2560.3,3135.2,2195.3,3258L2195.3,3258z"/>
	<path class="st0" d="M3003.8,2466.1c-11,39.2-24,77.8-38.9,115.7h-397.5c25.5-36.2,46.9-74.6,63.4-115.7H3003.8L3003.8,2466.1z
		 M2676.4,2235.2c-0.5,38.8-4.2,77.5-11.2,115.7h363.6c6.3-37.5,10.3-76.4,12.9-115.7H2676.4L2676.4,2235.2z M2654.1,2004.2
		c2.7,13,5.4,25.9,7.6,38.9c4.6,25.4,8,51.1,10.3,76.8H3044c-0.3-38.6-1.8-77.2-4.5-115.7H2654.1z M1718.7,2119.9
		c2.2-26.3,5.8-51.8,10.3-76.8c2.2-13,4.9-25.9,7.6-38.9h-385.5c-2.7,37.1-4,75.5-4.5,115.7H1718.7z M1725.4,2350.8
		c-7-38.2-10.7-76.9-11.2-115.7h-365.4c2.7,39.3,6.7,78.2,13,115.7H1725.4z M1823.2,2581.8c-25.5-36.2-46.9-74.6-63.4-115.7h-373
		c11,39.2,24,77.8,38.9,115.7H1823.2L1823.2,2581.8z M2198.9,2814.9h-7.1c-139.4-47.3-254.6-124.6-334.1-227.4
		c-75.9-98.7-118.8-221.1-118.8-361.8c0-66.1,4.5-124.2,14.3-178.2c9.6-53.3,24.9-105.4,45.6-155.4l3.1-7.1
		c41.1-1.3,83.1-3.1,122.8-13.9c28.1-7.6,53.6-20.5,79.5-33.5c46-23.7,91.6-46.9,191.2-46.9c99.6,0,145.2,23.2,191.2,46.9
		c25.9,13,51.3,25.9,79.5,33.5c39.8,10.7,81.7,12.5,122.8,13.9l3.1,7.1c20.7,50,36,102.1,45.5,155.4c9.9,54,14.3,112.1,14.3,178.2
		c0,140.7-42.9,263.1-118.8,361.8C2453.5,2690.3,2338.3,2767.6,2198.9,2814.9L2198.9,2814.9z"/>
	<path class="st1" d="M2195.3,2790.4c132.7-45.5,242.5-119.7,318-218c72.8-94.3,113.9-211.3,113.9-346.6c0-64.8-4-121.5-13.9-174.2
		c-8.8-48.8-22.5-96.5-41.1-142.5c-50.5-1.8-85.3-6.7-112.6-14.3c-29.9-8-56.7-21.5-84.4-35.3c-43.3-22.3-86.2-44.2-180-44.2
		c-93.8,0-136.7,21.9-180,44.2c-27.7,13.8-54.5,27.2-84.4,35.3c-27.2,7.6-62.1,12.5-112.6,14.3c-18.6,46-32.3,93.7-41.1,142.5
		c-9.8,52.7-13.9,109.4-13.9,174.2c0,135.3,41.1,252.4,113.9,346.6C1952.8,2670.7,2062.7,2744.8,2195.3,2790.4z"/>
	<path class="st0" d="M1675.8,1782.2c12.5,9.4,18.3,23.2,16.5,42s-10.7,39.3-27.2,62.1c-9.4,13-18.3,23.7-27.2,31.7
		c-8.9,8.5-12.5,11.6-21.4,17.9l-32.6-20.1c12.5-7.1,20.5-12,32.6-21.4c10.1-7.6,19-16.6,26.4-26.8c1.8-2.2,4-5.8,6.3-9.8
		c2.7-4.5,4.5-8.1,5.4-11.2c1.3-3.6,1.8-7.1,1.8-10.3s-1.3-5.8-4.5-8c-3.1-2.2-6.3-2.2-10.7-0.9c-4,1.3-8.5,4.5-13.8,9.4
		s-11.2,10.7-17,16.5c-5.8,5.8-11.2,10.7-17,15.6c-13.4,10.7-25,16.5-34.8,18.3c-10.3,1.3-20.1-1.3-28.6-7.6
		c-12.1-8.9-17-22.3-15.2-40.6c2.2-18.8,10.7-38.4,25.5-59c7.6-10.3,16.1-20.1,25-29c6.8-6.9,14.1-13.3,21.9-19.2l24.1,23.2
		c-17.4,9.8-35.3,25.9-46.5,41.1c-2.6,3.1-4.9,6.6-6.7,10.3c-2.2,3.6-4,7.1-4.9,11.2c-1.3,3.1-1.8,6.5-1.3,9.8c0.3,3,1.8,5.7,4,7.6
		c3.1,2.2,7.1,2.7,11.2,0.9c4-2.2,9.8-6.7,17.9-14.7c4.9-4.9,10.3-9.8,14.7-14.3c4.9-4.9,10.3-9.4,16.1-14.3
		c12.1-9.8,22.8-15.6,32.6-17.4C1658,1773.3,1666.9,1776,1675.8,1782.2z M1762.9,1614.3c-7.8-2.3-16.1-2.6-24.1-0.9
		c-7.1,1.3-14.7,4.5-22.3,8.5s-16.1,10.3-25.5,18.3l-63,52.7l101.4,121l36.6-30.8l-33-39.3l25.5-21.4c11.2-9.4,19.2-17.9,24.1-26.8
		c5.3-8.3,9-17.6,10.7-27.2c1.7-7.1,1.4-14.5-0.9-21.4c-1.8-6.9-5.2-13.3-9.8-18.8C1776.8,1621,1770.1,1616.5,1762.9,1614.3
		L1762.9,1614.3z M1750.4,1671.4c0.9,3.1,0.9,6.7,0,10.7c-1.3,4.5-3.6,8.5-7.6,13c-4.6,5.2-9.7,10-15.2,14.3l-13.8,11.6l-30.4-36.2
		l9.4-8c6.3-5.4,11.6-9.4,15.2-12.5c4-3.1,8.5-5.4,13.8-7.6c3.9-1.4,8-1.8,12.1-1.3c4.5,0.4,8,2.7,10.7,5.8
		C1747.8,1664.7,1749.5,1668.3,1750.4,1671.4L1750.4,1671.4z M1950.1,1527.2c-22.3-6.7-48.2-3.6-77.3,8.5
		c-29.5,12.5-49.6,29-60.3,49.6c-10.7,21-11.2,42.9-1.3,66.1c9.8,23.2,25.9,38,48.2,44.7c22.3,6.7,48.2,3.6,77.7-8.9
		s49.6-29,60.3-49.6c10.7-20.5,11.2-42.4,1.3-65.7C1989,1548.2,1972.9,1533.4,1950.1,1527.2z M1942.9,1649.1
		c-4.9,4-11.2,8-17.4,10.7c-6.2,2.7-12.9,4.3-19.6,4.9c-6.3,0.5-12.5,0-18.3-2.2c-6.1-2.4-11.5-6.1-16.1-10.7
		c-5.4-4.9-9.8-11.6-13.4-20.5c-3.6-8.5-5.4-16.1-5.4-23.7c0-7.6,0.9-14.3,3.6-19.6c3.1-5.8,6.7-10.7,11.2-14.7
		c4.9-3.6,11.2-7.6,17-9.8c6.1-2.6,12.6-4.4,19.2-5.4c6.3-0.4,12.5,0.5,18.3,2.2c5.8,2.2,11.2,5.8,16.5,10.7
		c5.4,4.9,9.4,12.1,13.4,20.6c3.1,8,5.4,15.6,5.4,22.8c0.4,6.7-0.9,13.4-3.6,20.1C1951.4,1640.2,1947.4,1645.1,1942.9,1649.1
		L1942.9,1649.1z M2162.7,1574.1c12.1-5.8,21-12.9,26.8-21c5.8-7.6,8-17.4,7.1-29c-0.9-8.5-3.1-15.2-7.6-20.5
		c-5.2-5.5-11.6-9.7-18.8-12.1c-7.6-3.1-15.2-4.5-23.7-4.9c-8.5-0.4-18.3,0-29.5,0.9l-82.6,7.1l13.9,157.7l46.4-4.5l-4.9-57.6
		l24.6-2.2c22.8,17.4,40.2,35.3,50,54l54.5-3.1C2204.7,1614.3,2190.4,1591.5,2162.7,1574.1L2162.7,1574.1z M2144.4,1544.1
		c-1.3,2.7-3.6,5.4-6.7,8c-3.6,2.7-8,4.5-13.4,5.4c-4.9,1.3-11.6,2.2-19.7,2.7l-17,1.8l-4-42.4l20.1-1.8c5.8-0.4,11.2-0.9,15.6-0.9
		c4.5-0.5,8.5,0,12.1,0.9c4.9,1.3,8.5,3.1,10.7,5.8c2.2,2.7,3.6,5.8,4,9.8C2146.6,1537.9,2145.7,1541.5,2144.4,1544.1L2144.4,1544.1
		z M2386.9,1496.8l-170.2-17.9l-3.6,32.6l62.5,6.7l-13.4,124.2l46,4.9l12.9-124.6l62.1,6.7L2386.9,1496.8L2386.9,1496.8z
		 M2473.2,1524l-44.7-12.9l-43.8,151.9l45.1,12.5L2473.2,1524z M2708.6,1641.1l-39.3-23.2l-52.7,81.3l-41.1-131.3l-42-19.2
		l-64.8,143.8l40.2,17.4l39.3-85.8l39.7,128.6l34.4,23.7L2708.6,1641.1L2708.6,1641.1z M2816.2,1878.3l-41.5-64.8l-23.2,17
		l15.2,24.1l-22.8,16.1c-13.8-15.6-35.3-47.8-34.4-69.2c0.4-14.7,8-27.2,21.9-37.5c6.1-5,13.3-8.3,21-9.8c7.1-1.3,13.8-1.3,20.5,0.4
		c14.7,4,28.6,16.5,37.5,28.1c4.5,6.3,8,12.5,11.1,18.8c6.3,14.3,10.7,36.6,13.4,55.4l29.9-22.3c-4.5-14.7-9.4-33.1-14.7-43.3
		c-5.8-10.3-12.1-21-20.1-30.8c-20.1-27.2-42-43.8-65.2-49.6c-23.2-5.8-44.7-1.8-64.3,13c-20.5,15.6-31.3,35.3-31.7,59
		c0,23.7,9.4,48.7,29.5,75c8.5,11.6,18.3,21.9,29,31.7c10.7,9.8,26.3,25,33.9,30.4L2816.2,1878.3L2816.2,1878.3z M1754.9,2808.7
		c-3.8,4.3-8.5,7.7-13.9,9.8c-5.8,2.2-11.2,3.1-17,2.7c-7.9-0.3-15.7-2.3-22.8-5.8c-7.6-3.1-15.2-8.9-23.7-16.5l-20.1-18.7
		l-28.1,29.9l-27.2-25.5l86.2-92l48.7,43.3c7.1,6.7,12.5,12.9,16.5,18.8c7.1,9.4,12.5,25.5,10.3,37.1
		C1762.9,2798,1759.8,2803.3,1754.9,2808.7z M1725,2782.3c2.6-2.4,4-5.8,4-9.4c0-3.1-0.9-6.7-2.7-9.4c-1.7-3.7-4.2-7-7.1-9.8
		c-2.7-3.1-6.7-6.7-11.6-11.2l-8-7.6l-25.9,27.7l11.6,10.7c4.9,4.5,9.4,8,13,10.7c3.6,2.7,7.1,4,10.7,4.5c3.1,0.5,6.3,0.5,8.9-0.9
		C1720,2786.8,1722.7,2785,1725,2782.3z M1893.4,2905.6c-10.3,17.4-24.1,27.7-42.4,30.8c-18.3,3.1-38.4-1.3-59.9-13.8
		c-21.5-12.5-35.7-27.7-42-45.1c-6.3-17-4.5-34.4,5.8-51.8c9.8-17.9,24.1-28.1,42.4-31.3c17.9-3.1,38,1.8,59.4,13.8
		c21.4,12.5,35.7,27.7,42,44.7C1905.4,2870.3,1903.6,2887.7,1893.4,2905.6z M1832.2,2907c5.2-1.5,10.1-4.1,14.3-7.6
		c4-3.6,8-8.1,11.6-14.3c3.6-6.7,5.8-12.9,6.7-18.3c0.9-5.2,0.6-10.5-0.9-15.6c-1.3-4.6-3.6-8.8-6.7-12.5c-3.6-3.7-7.6-6.8-12.1-9.4
		c-4.3-2.5-9-4.3-13.8-5.3c-4.7-1.3-9.6-1.3-14.3,0c-4.9,0.9-9.4,3.1-14.3,7.1c-4.5,3.6-8.5,8.5-12.5,15.2
		c-3.3,5.5-5.5,11.6-6.7,17.9c-0.9,5.8-0.5,11.2,0.9,15.7c1.3,4.5,3.6,8.9,6.7,12.5c3.6,3.6,7.6,7.1,12.1,9.4
		c4.5,2.7,9.8,4.9,14.7,5.8C1822.3,2908.3,1827.3,2908.3,1832.2,2907L1832.2,2907z M2035,3007.9l-44.7-14.3
		c-1.8-19.2-11.6-38-24.1-56.7l-19.2-6.3l-14.3,44.2l-36.2-11.6l38.9-120.2l63.9,20.5c8.9,2.7,16.1,5.8,21.9,8.5
		c6.3,3.1,11.6,6.7,16.1,11.2c4.9,4.5,8,9.4,9.8,14.7c1.8,5.3,1.8,11.2,0,17.4c-3.1,8.9-8,15.6-14.7,19.2c-7.1,4-15.6,6.3-26.4,7.1
		C2018.4,2959.2,2028.3,2981.1,2035,3007.9L2035,3007.9z M2007.3,2907c0.9-3.1,0.9-5.8,0.4-8.5c-0.9-2.7-3.1-5.3-6.3-7.6
		c-2.2-1.8-5.4-3.1-8.5-4.5c-3.6-1.4-7.6-2.7-12.1-4.5l-16.1-4.9l-10.7,32.2l14.3,4.5c5.8,2.2,11.2,3.6,15.6,4.5c4,0.9,8,0.9,11.2,0
		c3.1-0.9,5.8-2.2,7.6-3.6C2004.6,2912.7,2006.4,2910.5,2007.3,2907L2007.3,2907z M2195.3,2890.4l-136.2-11.6l-2.2,25.9l50.5,4.5
		l-8.5,99.6l34.8,3.1l8.5-99.6l50.9,4.4L2195.3,2890.4z M2352.1,2875.3l-38.9,4l6.7,79.1c0.9,9.4-0.9,16.1-5.3,20.5
		c-4,4.5-12.5,7.2-22.3,8.1c-10.3,0.9-19.2-0.5-24.1-4c-4.9-4-7.6-10.3-8.5-19.2l-6.7-78.2l-38.4,2.7l6.7,80.8
		c1.3,15.7,8.5,26.8,20.5,34c12.5,7.6,29.9,10.3,52.7,8c22.3-1.8,39.3-7.6,50-17c11.2-9.4,15.6-21.5,14.3-37.1L2352.1,2875.3
		L2352.1,2875.3z M2532.6,2880.1l-55.4,17l6.7,22.8l21.4-6.7l7.1,23.7c-16.5,6.7-41.5,13.4-58.5,6.7c-11.1-4.5-18.3-13.4-22.8-26.8
		c-1.8-6.7-2.2-12.5-1.3-18.3c1.8-12,8.9-21,18.8-27.7c4.9-3.1,12-6.3,18.7-8.5c5.7-1.7,11.5-2.7,17.4-3.1
		c12.1-0.5,28.1,1.3,40.7,3.6l-8.9-28.6c-10.7-0.8-21.5-0.5-32.2,0.9c-8.9,1.3-18.7,3.1-28.1,6.3c-25.9,8.1-44.2,19.7-55.4,35.7
		c-10.7,15.6-13.4,33.1-7.6,51.8c5.8,19.6,17.9,33.1,35.7,39.7c17.4,6.7,38.9,6.3,64.3-1.3c11-3.3,21.6-7.6,31.7-12.9
		c8.8-4.6,17.5-9.5,25.9-14.8L2532.6,2880.1L2532.6,2880.1z M2719.3,2848.9l-35.8,21l-22.3-17l-49.6,29l3.1,27.3l-34.8,20.1
		l-13.4-138l39.7-22.8L2719.3,2848.9L2719.3,2848.9z M2641.1,2837.7l-38.9-29.5l5.8,48.7L2641.1,2837.7z M2804.2,2732.7l-52.7,49.1
		l-68.8-73.7l-27.2,25.5l85.8,92.5l80.4-74.6L2804.2,2732.7L2804.2,2732.7z"/>
	<path class="st1" d="M1648.6,1331.5c15.2,0,76.4,1.8,126.9-12.1c36.6-10.3,71.9-32.2,63.4-52.7c-8-18.3-42.9-18.8-84-9.4
		c-51.8,12.1-104.1,8-121.9,0c-20.1-8.9-36.6-25-44.7-46.5c-8-22.3,1.8-54,23.7-78.2c21.9-24.1,54.5-43.8,97.4-59.4
		c41.1-15.2,82.6-22.8,125.5-27.2l27.7,59.4c-23.7-0.5-51.8,0.5-81.7,6.3c-30.4,5.4-63,15.6-81.7,33.1
		c-17.4,16.5-8.9,39.3,15.6,36.6c13.9-1.3,31.7-3.1,47.8-4.9c40.2-3.6,82.6-9.8,121.9,1.8c78.6,23.2,59.4,99.2,11.6,142.5
		c-18.3,16.5-40.2,29.5-59.4,38.4c-48.2,22.3-104.5,30.8-155.9,34.8L1648.6,1331.5z M2368.2,1006.3c-22.5-9.2-45.8-16.1-69.7-20.5
		c-24.1-4.9-50-7.1-76.4-7.1c-33.5,0-65.7,4-96,11.6c-50,13-104.1,38.9-133.1,84c-12.1,19.2-17.9,39.3-17.9,61.2
		c0,25,8,48.7,24.1,69.7c33.1,43.3,90.2,68.4,142,79.5c25.5,5.4,52.3,7.2,80,7.2c26.4,0,51.4-2.2,75.5-6.7s54.5-16.1,74.6-24.6
		l-0.4-72.8c-44.7,23.2-93.4,37.1-143.9,37.1c-54.9,0-140.7-19.2-140.7-90.2c0-70.6,85.3-89.8,140.7-89.8
		c46.9,0,101.9,11.2,141.2,35.7L2368.2,1006.3L2368.2,1006.3z M2533.5,1339.6l34.9-109.4l79.9,25.5c26.3,8,68.8,14.3,105,1.8
		c51.4-18.3,67-74.6,35.7-118.4c-12.9-18.3-32.6-33-51.4-42.4c-20.1-9.8-59.4-21.4-95.1-33.5l-113.4-37.5l-89.3,283.2L2533.5,1339.6
		L2533.5,1339.6z M2709,1180.5c-7.1,23.7-52.7,18.3-70.1,13l-53.2-16.5l20.1-66.1l60.3,19.2C2686.7,1136.8,2717,1155.5,2709,1180.5z
		"/>
	<path class="st2" d="M2285.1,1909.5c-11.2,8.5-20.1,15.6-29.5,18.3c-0.9,0-0.9,1.3-0.5,1.3c7.2,3.1,16.5,2.7,26.4,2.7
		c9.4-0.4,19.7-0.4,28.6,1.8c6.3,1.3,10.7,4.5,14.3,8c3.1,4,5.3,8.5,5.8,12.5c-11.2-5.8-21.9-8.5-31.3-8c-3.9-0.1-7.7,0.9-11.2,2.7
		c-3.4,1.7-6.2,4.3-8.1,7.6c-2.2,3.6-3.1,8-3.1,13.4c0.4,0.4,0.9,0.9,1.3,0.4c4.1-2.6,8.7-4.4,13.4-5.4c4-1.3,8-1.8,12.1-1.3
		c9.4,0.4,17.4,4,23.7,9.4c6.3,5.4,10.3,12.5,10.3,19.6c0.5,6.3,0.9,13,2.2,18.8c0.9,4.9,2.7,9.4,4.9,13.9
		c-6.3-2.7-10.3-8.5-14.3-14.3c-5.8-7.6-11.6-15.6-22.3-17.4c-4.5-0.9-9.4,0-13.9,2.2c-4.5,2.2-8,6.3-10.7,11.2
		c-0.5,0.9,0,1.3,0.9,1.3c8.5-0.5,16.1,1.3,22.3,4.9c7.1,3.6,12.9,9.4,17.4,16.1c9.4,14.7,10.3,27.7,10.7,38.9
		c0.5,8.9,0.9,16.5,5.4,23.7c-10.7-4-17-15.6-22.3-26.4c-3.1-6.3-5.8-11.6-9.4-15.6c-1.7-1.7-3.7-3.2-5.8-4.5
		c-3.4-1.9-7.3-2.6-11.1-2.2c-4.1,0.8-7.8,2.9-10.7,5.8c-2.5,2-4.5,4.6-5.8,7.6c-0.4,0.5,0,1.3,0.5,1.3c8.9,0,17.4,3.6,24.1,10.3
		c6.3,5.8,10.7,14.7,12.5,25.5c0.9,8.5,0.9,18.3,0.5,28.1c-0.5,19.7-0.9,39.7,10.7,52.3c-21-3.6-25.5-22.3-29.9-40.7
		c-1.2-5.1-2.7-10.2-4.5-15.2c-2.1-6.6-5.8-12.6-10.7-17.4c-5.4-4.9-11.2-7.6-16.5-8.5c-0.4,0-0.9,0.9-0.4,1.8
		c8.5,8.9,11.6,19.6,11.6,31.3c0,11.6-2.7,24.6-6.3,38.4c-2.7,10.3-3.6,20.5-1.8,29.5c1.3,8.5,4.5,15.7,10.3,21.5
		c0.5,0.4,1.3,0,1.3-0.5c0.9-7.6,2.2-13.9,4.9-18.8c2.7-4.5,5.8-8.5,9.8-12v8.5c0.5,22.3,0.9,46,3.1,63c1.4,10.7,8.5,28.1,17,44.7
		c10.3,20.1,22.3,39.3,29,46.5c11.2,11.6,23.2,18.3,35.3,21c10.3,2.2,20.5,1.3,29-2.3c8.9-3.1,16.1-9.4,21-17
		c5.1-7.6,7.7-16.7,7.1-25.9c-0.9-13.8-3.1-24.6-10.3-41.1c-7.1-16.1-18.7-38-37.1-73.7c-9.4-17.9-17-36.6-20.1-55.4
		c-3.1-19.2-1.8-38.4,6.7-57.6c5.8-14.3,15.2-25.5,27.3-33.1c11.9-7.2,25.9-10.2,39.8-8.5c0,0,0.4-0.4,0.9-0.4
		c2.2-5.4,5.8-8.9,10.3-11.6c4.9-2.7,10.7-4,16.5-4.5c8,0,16.1,1.3,23.2,4c3.1,0.9,6.3,2.7,8.9,4c5.3,2.7,10.7,5.4,17.4,5.4
		c7.6,0.5,15.2-3.6,22.3,0c-4.9,0.5-8.9,3.1-12.9,5.4c-4.9,2.7-9.8,5.4-17.4,5.8c-8.5,0.5-15.2-1.8-23.2-4.9c-0.5-0.4-0.9,0-1.3,0.4
		v0.9c0,12.1,21.9,13.9,30.8,12.1c4.9-1.3,10.7-2.2,13.8-1.3c-4.5,0-8.5,2.7-12.9,4.9c-5.4,2.7-16.5,5.4-25.9,5.4
		c-5.3,0-10.7-1.3-13.4-4.5c-0.4-0.4-1.8-0.4-1.8,0.5c0,0.9,0,1.8,0.4,2.7c0.5,4.9,4.9,8.1,9.4,9.4c4.9,1.3,10.3,0.4,14.3,0
		c6.3-0.9,11.2-1.3,18.3,0c-7.1,1.8-13,4.5-19.2,7.1c-13.8,6.3-27.7,10.7-42.9,7.6c-9.8-2.2-17.9-8.1-20.5-17.4
		c-1.8-6.1-1.8-12.6,0-18.8c0-0.4,0-0.9-0.9-0.9c-6.9-1.3-14.1-0.5-20.5,2.2c-7.1,3.1-13.4,8-18.7,13.8
		c-8.9,10.3-13.9,22.3-15.6,35.3c-1.8,14.3,0,29.9,4.5,44.7c3.6,12.5,9.4,25,16.5,37.5c6.7,12.9,14.7,25,22.3,37.5
		c4.9,7.6,9.4,15.2,13.9,22.8c4.5,7.2,8.5,14.3,12.5,21.5c4.9,8,7.1,15.6,8.5,23.2c1.3,7.1,1.3,14.3,1.3,21
		c-0.5,13.4-4,25.9-10.7,36.6c-6.7,10.3-16.1,19.2-29,26.8c-0.9,0.4-0.9,1.3,0,1.3c4,1.8,8.5,2.7,12.9,1.3c4-0.9,8.1-3.1,12.1-6.2
		c-4.5,9.8-12.5,16.5-22.3,20.5c-12.5,4.9-27.7,5.3-43.3,2.2c-0.4,0-0.9,0.5-0.9,1.3c1.3,6.7,4,13,8.1,17.9
		c2.7,3.1,6.2,5.8,10.3,7.6c4,1.3,8.9,1.8,13.9,0.9c6.2-1.3,13.8-4.9,21.4-11.2c3.6,24.6-16.1,35.3-37.1,46.5
		c-2.7,1.3-4.9,2.7-7.1,3.6c-7.1,4.5-14.3,11.2-18.3,18.8c-3.6,7.1-5.4,15.2-3.1,22.8c0,0.9,0.9,0.9,1.3,0.5
		c4.5-4.5,10.7-7.1,17.4-10.3c10.7-4.9,22.8-10.7,30.8-24.1c3.6,5.8,4.9,11.6,4,17c-1,6.8-4.5,13.1-9.8,17.4
		c-14.3,12.9-25.9,16.1-31.7,18.3c-1.8,0.4-3.1,0.4-4,0.9c-3.6,1.8-6.7,4-10.3,6.7c-4,3.1-7.6,6.7-10.7,9.8l-0.5,0.5
		c-1.8,3.6-3.1,7.1-3.6,10.7c-0.5,3.6,0.5,7.1,2.2,10.3c0.5,0.4,0.9,0.4,1.3,0.4c2.7-1.8,7.1-2.2,11.6-2.7c3.6-0.5,7.1-0.9,10.3-1.8
		c-2.2,6.7-6.3,11.6-10.7,15.6c-5.7,4.2-11.8,7.8-18.3,10.7c-3.6,1.8-8.1,6.3-11.2,11.6c-3.7,6.1-6.4,12.7-8,19.7
		c-2.2,8-0.5,15.6,1.3,22.8c1.3,4.9,2.7,9.8,3.1,14.7c0,6.3-4,11.2-9.8,14.7c-7.1,4.5-17.4,7.1-26.4,7.6c4.5-8.9,2.7-15.2,1.3-21.5
		c-0.9-3.1-1.8-6.3-1.8-9.8c0-0.4-0.5-0.9-0.9-0.9c-4,0-8.5,5.4-13,10.7c-2.2,2.7-4.5,4.9-6.7,7.1c-7.1,6.7-17,7.2-25.9,7.6
		c-3.6,0-7.1,0-10.3,0.9c0-0.5,0-0.9,0.4-1.8c2.2-9.4,4-16.1,7.1-21c1.3-2.7,4-4.9,6.7-7.1s5.8-4.5,7.6-7.6c0.5,0,0.5-0.5,0-0.9
		c-3.6-8.5-15.2-6.3-27.2-4c-5.4,0.9-10.7,1.8-15.2,1.8c-0.5-4.5-0.5-8.5,0.5-11.6c0.5-4,1.8-6.7,3.6-8c7.6-8.5,18.7-6.7,30.4-4.9
		c8,0.9,16.5,2.2,24.1,0c8.2-6.4,15.5-13.7,21.9-21.9c5.8-8.5,11.1-17,15.2-26.8c4-11.6,4.9-21.9,3.1-29.5
		c-1.3-5.3-3.6-9.4-6.7-12.1v0.5c-3.6-3.1-8.3-4.6-13-4c-7.1,0.5-16.1,3.6-25.9,9.8c3.1-25.5-5.4-34.8-17.9-49.1
		c-0.7-0.7-1.3-1.4-1.8-2.2c-3.6-4-9.4-10.3-13.9-16.5c-4.9-6.3-8.9-12.5-8.9-16.5v-3.1c-0.5-18.3-0.5-30.4,6.2-42.9
		c2.7-5.4,5.8-10.3,8.9-15.2c3.1-5.3,6.3-10.3,8.5-14.7c3.6-6.7,4.9-12.5,0.5-15.2c3.1-6.3,1.3-11.2-4.9-15.2
		c-6.3-4.5-17-7.6-30.8-10.7c-14.3-2.7-24.1-4.9-33.5-7.6c-8.9-2.7-16.5-6.3-24.6-10.7c-8.8-5.5-17-12.1-24.1-19.7
		c-6.7-6.2-11.6-12.9-13.4-18.3c8-3.1,14.7-7.2,19.6-12.5c0.5-0.4,0-1.3-0.4-1.3c-18.8,0.9-36.2-9.8-51.4-18.8
		c-11.2-6.3-21-12.1-28.6-12.1c-5.8,0-11.6,0.9-16.1,2.7c-4.4,1.6-8.1,4.6-10.7,8.5c0,0.5,0.5,1.3,0.9,1.3
		c13.8-2.7,21.4,3.6,29.5,10.7c6.3,5.3,13,11.2,24.1,14.3c-12.1,6.3-21.4,8.1-29.9,7.2c-8.9-1.3-17.4-6.3-28.1-12.1
		c-8-4.5-16.5-8.9-25-10.3c-8-1.8-16.1-0.5-23.2,5.8c-0.9,0.4-0.4,1.3,0,1.3c6.7,2.2,12.5,5.4,17,8.9c4,3.6,7.1,7.6,8.9,12.5
		c-8.5-2.7-17-5.4-25-7.2c-8.5-2.2-16.5-3.6-24.1-3.6c-8.9,0-17.4,3.1-26.4,6.3c-3.6,1.3-7.6,2.2-11.2,3.6
		c-19.7,4.9-25.5,9.4-31.7,13.4c-1.6,1.6-3.4,2.9-5.4,4c-1.3,0.4-3.6,1.3-5.8,1.8c-3.6,1.3-8,2.2-12.1,5.8c-0.4-1.3-0.4-3.1-0.9-4.5
		c-0.5-7.1,0.4-14.3,4-19.6c3.1-5.4,9.4-9.9,18.3-11.6c1.8-0.5,4-0.5,5.8-0.9c0.9,0,1.3-0.9,0.5-1.3c-10.3-12.1-16.1-9.8-26.8-5.8
		c-2.2,0.9-5.4,2.2-8.5,3.1c-1.6,0.7-2.9,2-3.6,3.6c-0.9,1.7-1.7,3.5-2.2,5.4c-7.1-16.1-0.9-24.1,8.9-28.2c10.7-4,25.5-4,33-4
		c0.5,0,0.9-0.5,0.9-1.3c-2.7-4.9-5.4-8-8-9.8c-3.1-1.8-6.7-2.2-11.6-2.7c-0.9,0-1.8-0.4-2.7-0.4c-2.7-1.1-5.7-1.2-8.5-0.5
		c0.5-4.9,1.8-8.9,4-11.6c2.2-2.7,5.4-4,9.8-4c10.7,0.5,19.6,5.3,29,10.7c10.3,5.8,21,11.6,35.3,11.6c11.2-0.4,21-2.7,30.4-6.7
		c9.4-4,18.3-8.9,27.2-15.2c4-2.7,7.2-4.9,10.7-7.2c13-9.4,25.5-17.9,37.1-21.4c3.1,3.1,8,4.5,14.3,4.9c6.3,0,14.3-1.3,23.7-4
		c2.2-0.9,4.5-1.3,6.7-1.8c10.7-2.7,21-5.4,26.4-9.8c6.3-4.9,11.2-9.8,14.7-15.6c3.1-5.4,5.4-11.2,6.7-18.3c0-0.5-1.3-0.9-1.8-0.5
		c-12.1,13.4-22.3,15.6-31.7,17.4c-5.1,0.8-10.1,2.5-14.7,4.9c-9.8,6.7-18.8,11.6-25.9,14.3c-6.7,2.7-12.1,3.6-16.1,2.7
		c1.8-9.8,5.4-19.2,10.7-26.4c5-7.6,12.2-13.7,20.5-17.4c9.4-4.5,19.7-8.1,29-11.2c21-7.1,38.9-13,41.5-25.4c0-0.5-0.4-1.3-0.9-0.9
		c-17.4,5.4-27.7,5.4-38.4,5.4c-4.9,0-10.3,0-16.1,0.9c0.9-4.9,4.5-8.9,10.7-13c6.3-4,15.6-7.1,25.5-10.7c3.6-1.3,7.6-2.2,11.6-3.6
		c12.1-3.6,26.4-7.6,33.5-15.2c3.1-2.7,4.5-6.3,4.9-9.4c0.5-1.8,0.5-3.6,0-5.4c-0.5-1.3-1.3-3.1-2.7-4c-1.2-1.4-3-2.3-4.9-2.2
		c-3.6-0.4-9.4,0.9-15.6,4c-5.8,3.1-12.5,7.6-19.2,13c-9.4-5.4-16.5-11.2-21-17.4c-3.6-5.8-4.9-11.6-2.7-17
		c25.5,3.6,41.5,4,51.4,1.3c10.7-3.1,14.7-8.9,16.1-18.3c0.9-5.8-1.3-11.2-5.8-16.5c-3.3-3.3-7-6-11.2-8c-4.6-2.4-9.6-4.1-14.7-4.9
		c-15.2-2.7-34,1.3-50.5,16.1c-3.7-1.4-6.8-3.9-8.9-7.1c-1.3-2.3-1.9-4.9-1.8-7.6c0.5-2.7,1.3-5.4,3.1-7.1c2.2-3.1,5.4-5.4,9.4-6.3
		c0.9-0.5,0.9-1.8,0-1.8c-1.8-0.4-3.1-0.4-4.5-0.4c-5.4-0.9-8.9-1.3-11.2-2.7c-1.3-0.9-1.3-2.2,0-4.5l4-7.6
		c18.8-4.9,31.3-7.1,41.1-6.7c9.4,0.9,15.6,4.5,21.4,11.6c0.4,0.4,0.9,0.4,1.3,0.4c4.9-4,11.6-6.3,17.9-8
		c8.5-3.1,16.1-5.4,19.2-11.2c0.5-0.4,0-1.3-0.4-1.3c-10.3,1.3-19.2,1.8-27.2,2.2c-8,0-14.3-0.5-19.7-1.3c-4.9-0.9-8.5-3.6-10.3-6.3
		c-0.9-1.5-1.3-3.2-1.3-4.9c0-1.3,0.9-3.1,1.8-4.5c1.8-2.7,5.4-4.9,10.3-5.4c4.5-0.9,9.8-0.4,16.1,0c6.3,0.9,13.4,2.2,21,3.6h0.9
		c22.8-16.5,37.5-12.5,54.9-7.6c13,3.6,28.1,7.6,49.1,4.9C2285.7,1908.9,2285.4,1909.2,2285.1,1909.5L2285.1,1909.5z"/>
	<path class="st2" d="M1867.5,2001.1c3.1,0.5,4.9,1.8,6.7,3.1c0.9,0.9,1.8,1.3,2.2,1.8c4,1.3,8,3.6,11.2,6.7
		c2.7,2.7,4.9,6.3,6.7,10.3c0,0.9-0.5,1.3-0.9,1.3c-4.5,0.5-8-1.8-12.1-4.5c-5.8-3.6-12.1-7.6-23.2-3.6
		c13.4,28.6,23.2,30.4,47.4,34.4c5.4,1.3,12.1,2.2,19.6,4c8.9,1.8,16.1,4.9,21.4,9.4c3.6,2.7,6.3,5.8,7.6,9.4
		c1.3,3.6,1.8,7.6,0.9,11.6c-0.9,4.5-3.1,8.5-6.7,13.4c7.1,0,15.6-2.2,23.2-4.5c10.7-2.7,20.1-4.9,25.9-2.2c0.4,0.5,0.4,1.3,0,1.8
		c-5.8,1.8-8.9,4.5-13.4,8.5c-5.8,5.4-13.8,12.5-32.6,21.9c6.7,3.1,13,4,19.6,3.6c7.1-0.4,14.3-3.1,21.9-7.1c0.9-0.5,2.2-1.3,4-2.2
		c8.5-5.4,23.7-15.2,34.4-7.1c0.5,0.4,0,1.8-0.9,1.8c-11.6-0.5-17.4,6.7-24.1,15.2c-4.9,6.7-10.7,13.8-20.5,19.6
		c19.7,2.7,34.4-0.4,45.6-7.1c11.6-7.2,20.1-17.9,27.7-29.5c6.7-10.7,13-16.1,17.9-20.5c2.2-1.8,4-3.6,5.4-4.9
		c-7.1-1.8-15.6-1.8-23.7-2.2c-8,0-15.6-0.4-22.8-1.3c-8.5-1.8-16.5-3.6-23.7-6.3c-7.2-2.6-14.1-6.1-20.5-10.3
		c-12.1-8-20.5-16.1-26.8-23.7c-5.7-6.5-10.2-13.9-13.4-21.9c-1.3-2.7-2.2-5.4-3.1-7.6c-6.3-15.6-12.5-30.8-35.3-28.1
		c3.6,5.8,6.3,11.2,8.5,16.1c2.7,5.8,4,10.7,4.5,15.6c0,0.9-1.3,1.3-1.8,0.4c-5.8-11.2-13.8-20.5-21.9-25c-3.6-2.1-7.5-3.4-11.6-4
		c-4,0-8,0.4-11.6,2.7C1874.3,1992.5,1870.2,1996.4,1867.5,2001.1L1867.5,2001.1z M1951.9,2470.1c1.8,0,4-0.5,6.3-0.5
		c1.8,0,3.1-0.4,4.5-0.4c9.4-1.8,16.1-2.3,20.5-0.5c4.5,1.3,7.1,4.9,7.6,10.3c0,0.4-0.5,1.3-0.9,1.3c-3.6,0-7.1-0.5-10.7-0.5
		c-8.5-0.5-16.5-0.5-21.9,2.2c-5.4,2.2-8.9,5.8-12.1,9.4c-2.8,4-4.7,8.6-5.4,13.4c-0.4,1.8,0,4,0.9,6.7c0.5,2.7,1.3,5.4,2.2,7.6
		c4.9-7.4,11.7-13.4,19.7-17.4c8-3.6,16.5-4,25.5-1.8c0.9,0,0.9,0.9,0,1.4c-5.4,3.1-13.4,8.9-19.2,16.5c-4,5.3-7.6,11.2-8.5,17
		c7.1-1.3,13.8,0,20.1,0.9c7.6,1.3,14.3,2.7,18.8-1.3c1.3-1.3,3.6-4,5.8-7.1c3.6-4.5,8.5-10.3,13-14.7c2.2-1.8,4.5-3.6,6.3-4.5
		c2.2-0.9,4.5-1.3,6.3-1.8c19.7-0.9,35.3-0.9,46.5,0.9c10.3,1.8,17.9,4.5,21.9,8c0-3.6-1.3-7.1-4-10.3c-3.6-4-9.4-8.1-17.4-11.6
		c-0.5-0.5-0.5-1.3,0-1.8c15.2-8,31.3-3.1,47.4,2.3c18.8,6.2,37.1,12,54.5-3.1c-6.7-0.5-12.1-4-17.4-8.5
		c-7.6-5.8-16.1-12.5-30.4-10.7c-0.4,0-0.9-0.9-0.9-1.3c2.7-4.9,6.7-8.5,11.6-11.2c5.8-3.1,12.5-4.5,18.3-4.5c8,0,15.2,2.2,21.9,4.5
		c8.5,2.7,16.1,4.9,25,4c-9.4-15.2-10.7-30.4-7.1-45.6c3.6-14.7,12.1-29.5,21.9-44.2c-6.7-2.3-14.3-1.4-22.3,2.7
		c-8.1,4-17.4,11.2-27.2,21c-0.5,0.9-1.3,0-1.3-0.9c3.6-11.6,8.5-21,14.7-27.7c4.9-6.2,10.7-10.3,17.9-13.4
		c-8.9-0.4-18.8,0-29.1,2.7c-12.1,2.7-24.6,8-37.5,16.1c-0.9,0-1.3-0.4-1.3-0.9c0.9-7.6,4.9-13.4,10.7-17.9c5.8-4,13-7.6,19.7-10.7
		c4.9-1.8,8.5-4.5,11.6-7.1c2.7-1.8,4.9-3.1,7.1-4.5c-6.3-0.5-13.8,0.9-22.3,2.2c-6.3,0.9-13,2.2-20.5,2.7c-4,0.5-8,0.5-12.1,0.9
		c-6.7,0-13.8,0.5-20.5,1.3c-10.3,2.2-19.2,7.1-25.5,14.3c-5.4,6.2-8,14.7-7.1,25.4c0.9,10.3,5.8,17.9,10.3,25.5
		c5.8,8.9,11.6,17.9,10.7,32.2c-0.9,13.4-8.5,21.5-18.8,25.9c-9.8,4.5-22.3,5.4-33,5.4c-6.3,0-12.5-0.5-17.9-0.9
		c-4.7-0.8-9.3-1.9-13.8-3.6c-3.9-1.7-7.6-3.6-11.2-5.8c-5.8-3.1-11.6-6.7-19.6-7.6c-7.1-0.5-14.7,0.9-20.5,4.9
		C1957.9,2459,1954,2464.2,1951.9,2470.1L1951.9,2470.1z M2023.8,1996.2c2.2,6.7,6.7,12.1,13,15.6c7.6,4.9,17.4,7.6,26.8,7.6
		c9.4-0.4,19.6-4.5,31.3-9.4c16.5-7.1,34.8-15.2,57.6-14.3c-26.4-6.3-47.8-0.4-65.7,4.5c-8.9,2.7-17,4.9-24.1,4.9
		c-9.8,0.4-17.9-0.5-24.1-2.2C2033.3,2001.5,2028.3,1999.2,2023.8,1996.2L2023.8,1996.2z"/>
	<path class="st1" d="M2260.5,2384.3c0.5-0.4,1.3,0,1.3,0.9c-1.8,6.2-3.1,12.5-4,19.2c-0.9,6.3-0.9,12.9-0.9,19.7
		c0.4,12.9,4.5,21.4,8.5,29.9c4.9,10.3,9.4,20.1,6.3,36.6c0,0.5-1.3,0.9-1.8,0c-4.9-12.1-10.3-20.1-14.7-27.3
		c-5.8-9.4-10.7-16.5-12.5-28.6c-0.9-6.3,0.4-16.5,4-26.8C2249.8,2399.1,2254.7,2390.6,2260.5,2384.3z M2177.5,2302.2
		c4.5,5.3,11.6,9.4,18.8,12.1c8.3,3.1,17.1,4.5,25.9,4c19.7-0.9,29.5-8.5,38.9-15.7c1.8-1.3,3.6-2.7,5.3-3.6c0.5-0.4,0-1.8-0.9-1.8
		c-15,4-30.5,6.2-46,6.7c-14.7,0.5-28.1-0.4-41.1-3.1C2177.5,2300.8,2176.6,2301.7,2177.5,2302.2L2177.5,2302.2z M2139.5,2278.9
		c5.4,4.9,12.5,8.5,20.5,11.2c8,2.7,16.5,4,25.5,4c9.8-0.5,19.3-2.9,28.1-7.1c8.5-4.5,15.6-10.7,19.7-17.4c0.4-0.9-0.5-1.8-1.4-1.3
		c-6.7,4.5-15.6,8-24.6,10.3c-9.2,2.7-18.6,4.3-28.1,4.9c-6.7,0.5-13.4,0-20.1-0.9c-6.3-0.9-12.5-2.7-18.3-5.4
		C2139.9,2277.1,2139.1,2278,2139.5,2278.9L2139.5,2278.9z M2102.4,2225.3c6.3,0,12.1,4.5,18.3,9.4c11.2,8,23.7,17.9,45.1,10.3
		c0.4-0.5,0.4-1.3,0-1.8c-6.3-2.2-12.1-6.3-17.9-9.8c-13-8.9-26.4-18.3-46-9.8C2101.5,2224,2101.5,2225.3,2102.4,2225.3
		L2102.4,2225.3z M2168.5,2220c11.2-9.4,21.4-10.7,30.8-12.1c7.1-0.9,13.4-1.3,20.1-4.9c13.4-7.1,22.3-16.1,25.9-27.7
		c3.1-11.2,0.9-25.5-8.9-42.4c-0.5-0.9-1.8,0-1.8,0.9c2.5,8,2.4,16.7-0.5,24.6c-3.2,8.4-9,15.6-16.5,20.5c-5.8,4-12.1,7.1-18.3,10.7
		c-14.7,8.1-29,15.2-32.6,29.5C2166.7,2220,2167.6,2220.4,2168.5,2220L2168.5,2220z M2103.3,2205.2c11.6-5.8,21.4-6.7,31.3-8
		c8.9-0.9,18.3-2.2,29-6.7c10.7-4.9,20.5-12.9,25.5-24.1c4-9.4,4.5-21-0.9-34.9c0-0.5-1.3-0.5-1.3,0c-10.3,24.6-24.1,30.8-42.4,38.4
		c-4.9,1.8-9.8,4-15.2,6.7c-8.5,4-17,9.4-22.3,14.7c-4.5,4.5-6.7,8.9-4.9,13.4C2102,2205.2,2102.9,2205.7,2103.3,2205.2
		L2103.3,2205.2z"/>
</g>
</svg>
